<?xml version="1.0" encoding="UTF-8" standalone="no"?>
<svg xmlns = "http://www.w3.org/2000/svg"
     xmlns:xlink = "http://www.w3.org/1999/xlink"
     xmlns:ev = "http://www.w3.org/2001/xml-events"  color="#ed1c24" height = "26px"  width = "49px"  fill="#ed1c24">

<path d="M48.4 18.9v-3H25.3c-.4 0-.9-.1-1.3-.2s-.8-.2-.9-.3c-1.2-.6-2-1.9-2-3.3 0-2.1 1.7-3.8 3.7-3.8s3.7 1.6 3.7 3.6h3c-.1-3.7-3-6.7-6.7-6.7s-6.7 3-6.7 6.8c0 2.7 1.5 4.9 3.7 6.1.3.2 1 .4 1.1.5.6.2 1.4.3 2.1.3h23.4zM3.5 3.3H8V24h3.2V.1H3.5z"></path>

<path d="M26.9 20.8h-1.8c-.9-.1-2-.2-2.9-.5-.2 0-.8-.3-1-.4-3-1.4-5-4.4-5-7.9 0-4.8 3.9-8.8 8.6-8.8 4.7 0 8.6 3.9 8.6 8.6h3.1C36.6 5.4 31.3.1 24.9.1 18.4.1 13.1 5.4 13.1 12c0 4.5 2.5 8.5 6.2 10.5.7.4 1.6.7 1.9.8 1.1.3 2.3.5 3.5.6h23.6v-3.2H26.9zM0 7.9h3.5V24h3V4.9H0zm42.7-5.7h.3c.4 0 .4.2.4.4 0 .3 0 .4.1.4h.4c-.1-.1 0-.1-.1-.4 0-.2 0-.4-.3-.5.3-.1.3-.3.3-.4 0-.5-.5-.6-.7-.6h-.9v2h.4v-.9zm0-1h.3c.3 0 .4.1.4.3 0 .1-.1.3-.4.3h-.4v-.6z"></path>

<path d="M43 4c1.1 0 2-.9 2-2s-.9-2-2-2-2 .9-2 2 .9 2 2 2zm0-3.7c.9 0 1.7.7 1.7 1.7s-.8 1.7-1.7 1.7c-.9 0-1.7-.7-1.7-1.7 0-.9.8-1.7 1.7-1.7z"></path>

</svg>

