<svg width="64" height="64" viewBox="0 0 64 64" fill="none" xmlns="http://www.w3.org/2000/svg">
<g clip-path="url(#clip0)">
<path d="M0 32C0 32 1.0511 18.6967 7.94161 11.9851C14.8321 5.27344 21.2555 0.958836 35.0365 3.42652e-05C48.8175 -0.958767 57.3431 13.4233 58.7445 15.9401C60.0292 18.457 64 26.0075 64 31.8802C64 37.7528 64 50.0974 55.9416 55.4907C47.7664 61.0038 39.9416 64.1199 34.3358 63.8802C28.7299 63.5206 14.4818 62.3221 8.17518 53.2135C1.63504 44.2248 0 41.3483 0 32Z" fill="#FDD528"/>
<path d="M20.3212 58.0076C16.9343 54.5319 12.4964 49.9776 12.9635 34.7566C13.4307 19.5357 16.9343 14.0226 19.5037 10.0675C20.9051 7.9102 25.6934 3.3559 31.6496 0.479492C20.0876 1.79784 14.1314 5.9926 7.94161 12.105C1.0511 18.6967 0 32.0001 0 32.0001C0 41.3484 1.63504 44.2248 8.05839 53.3334C14.4818 62.442 28.6131 63.6405 34.219 64.0001C34.219 64.0001 23.5912 61.4832 20.3212 58.0076Z" fill="#FAB920"/>
<path d="M29.0096 7.07144C32.6442 6.63643 39.0048 6.20142 45.8196 7.94146C46.5011 8.15896 47.1826 7.72395 46.9554 7.39769C44.6838 5.3314 38.5504 1.52507 28.3281 6.31017C27.6466 6.74518 28.101 7.18019 29.0096 7.07144Z" fill="#FFEC4C"/>
<path d="M24.5253 28.4045C23.3574 28.2847 22.4231 29.0038 21.2552 29.1236C16.5837 29.8427 12.0289 29.4832 7.70777 27.4457C7.12383 27.206 6.53988 26.8465 5.95594 27.5656C5.48879 28.1648 5.72237 28.8839 6.07273 29.4832C7.00704 30.8015 8.29171 31.5206 9.57638 32.1199C10.1603 32.4794 10.8611 32.7191 11.5618 33.0787C14.8319 34.0375 18.2187 34.397 21.4888 33.0787C22.5399 32.5993 23.7078 32.1199 24.4085 31.1611C25.1092 30.3221 25.4596 29.3633 24.5253 28.4045Z" fill="#FAB920"/>
<path d="M39.7078 29.7229C39.2407 31.1611 39.591 32.4794 40.8757 33.0787C44.4961 34.9963 48.3502 35.3558 52.2042 33.9176C54.3064 33.1985 55.1239 31.1611 54.4231 29.4832C53.8392 28.4045 52.9049 28.8839 52.2042 29.1236C49.8684 29.9626 47.5326 30.3221 45.0801 29.7229C44.3793 29.4832 43.6786 29.2435 42.9779 28.8839C41.5764 28.5244 40.5253 28.7641 39.7078 29.7229Z" fill="#FAB920"/>
<path d="M23.5913 48.779C23.5913 47.8202 24.1753 47.1011 24.7592 46.5019C28.73 42.0674 36.7884 41.9475 40.7592 46.382C41.5767 47.221 42.2774 48.1798 42.0439 49.3783C41.3431 49.9775 40.7592 49.4981 40.1753 49.2584C36.438 47.1011 32.584 46.9813 28.4964 48.2996C27.4453 48.6592 26.511 49.0187 25.4599 49.2584C24.7592 49.3783 24.0585 49.618 23.5913 48.779Z" fill="#841D1A"/>
<path d="M23.5915 48.779C24.409 49.3782 25.1097 48.8988 25.9273 48.6591C27.9127 48.0599 29.8981 47.2209 32.0002 46.9812C34.9199 46.6216 37.7229 47.2209 40.1754 48.6591C40.7594 49.0187 41.2265 49.4981 42.044 49.2584C41.9272 50.6966 40.9929 50.0973 40.2922 49.8576C38.5404 49.1385 36.6718 48.6591 34.8032 48.4194C32.8178 48.0599 30.8324 48.5393 28.9637 48.8988C27.5623 49.1385 26.2776 49.6179 24.8762 49.9775C24.0586 50.0973 23.0075 50.2172 23.5915 48.779Z" fill="#FDB900"/>
<path d="M53.6057 40.8689C53.6057 40.8689 58.8612 43.0262 58.0436 49.8577C58.0436 49.9775 58.0436 50.2172 57.9269 50.3371C57.5765 51.176 56.2918 54.412 54.0728 55.4907C54.0728 55.4907 47.1823 58.1274 43.5619 49.618C43.5619 49.618 41.8101 43.5056 39.9415 39.5506C39.3575 38.3521 39.7079 37.5131 40.759 37.3933C42.7444 37.1536 46.832 37.2734 53.6057 40.8689Z" fill="#7DDAFF"/>
<path d="M52.0875 40.1498C52.0875 40.1498 57.2262 41.8277 56.0583 47.7004C56.0583 47.8202 55.9415 47.9401 55.9415 48.0599C55.5912 48.779 54.1897 51.6554 51.854 52.6142C51.854 52.6142 46.3649 55.97 43.0948 48.779C43.0948 48.779 40.2919 42.7865 38.6569 39.4307C38.1897 38.4719 38.7737 37.1536 39.9415 37.0337C41.9269 36.9139 45.6642 37.2734 52.0875 40.1498Z" fill="#00B6FF"/>
<path d="M49.6348 40.7491C51.9706 42.3071 52.9049 43.1461 52.321 43.985C51.737 44.824 49.9852 43.8652 47.6494 42.3071C45.3137 40.7491 42.394 39.3109 42.9779 38.4719C43.445 37.633 47.2991 39.0712 49.6348 40.7491Z" fill="#7DDAFF"/>
<path d="M54.5401 17.9776C52.3211 14.2622 47.5328 12.3446 43.3284 12.7042C41.9269 12.824 41.343 14.9813 42.8612 14.8615C46.1313 14.5019 51.5036 15.7004 53.2554 18.6967C53.9561 20.0151 55.2408 19.296 54.5401 17.9776Z" fill="#F17E1B"/>
<path d="M9.10944 20.1349C11.2116 15.9401 16.2335 13.5431 20.6715 13.663C22.1897 13.663 22.8905 16.06 21.3722 15.9401C17.7518 15.8203 12.1459 17.4982 10.5109 20.854C9.81017 22.2922 8.40871 21.5731 9.10944 20.1349Z" fill="#F17E1B"/>
<path d="M25.1093 27.5655C23.9414 27.4457 23.0071 28.1648 21.8392 28.2846C17.1677 29.0037 12.6129 28.6442 8.29175 26.6067C7.70781 26.367 7.12387 26.0075 6.53993 26.7266C6.07277 27.3258 6.30635 28.0449 6.65671 28.6442C7.59102 29.9625 8.87569 30.6816 10.1604 31.2809C10.7443 31.6404 11.445 31.8801 12.1458 32.2397C15.4158 33.1985 18.8027 33.5581 22.0728 32.2397C23.1239 31.7603 24.2917 31.2809 24.9925 30.3221C25.6932 29.3633 25.9268 28.5243 25.1093 27.5655Z" fill="#872C01"/>
<path d="M40.1751 28.7641C39.708 30.2023 40.0583 31.5206 41.343 32.1199C44.9634 34.0375 48.8174 34.397 52.6714 32.9588C54.7736 32.2397 55.5912 30.2023 54.8904 28.5244C54.3065 27.4457 53.3722 27.9251 52.6714 28.1648C50.3357 29.0038 47.9999 29.3633 45.5474 28.7641C44.8466 28.5244 44.1459 28.2847 43.4452 27.9251C42.0437 27.6854 40.9926 27.8053 40.1751 28.7641Z" fill="#872C01"/>
</g>
<defs>
<clipPath id="clip0">
<rect width="64" height="64" fill="white"/>
</clipPath>
</defs>
</svg>
