<svg width="64" height="64" viewBox="0 0 64 64" fill="none" xmlns="http://www.w3.org/2000/svg">
<g clip-path="url(#clip0)">
<path d="M3 29.0208C3 29.0208 3.95255 16.9732 10.1971 10.8951C16.3358 4.92563 22.2628 0.909779 34.7518 0.0414862C47.2409 -0.826807 54.9672 12.1976 56.2372 14.4769C57.4015 16.7561 61 23.5939 61 28.9122C61 34.2305 61 45.4098 53.6971 50.2939C46.2883 55.2866 39.1971 58.1086 34.1168 57.8915C29.0365 57.5659 16.1241 56.4805 10.4088 48.2317C4.48175 40.0915 3 37.4866 3 29.0208Z" fill="#E8E9EE"/>
<path d="M28.5871 6.44544C32.1173 6.0515 38.2953 5.65755 44.9145 7.23333C45.5764 7.4303 46.2384 7.03636 46.0177 6.7409C43.8113 4.86966 37.854 1.42264 27.9251 5.75604C27.2632 6.14998 27.7045 6.54393 28.5871 6.44544Z" fill="#F5F6FA"/>
<path d="M21.4161 52.5732C18.3467 49.4256 14.3248 45.3012 14.7482 31.5171C15.1715 17.7329 18.3467 12.7402 20.6752 9.15851C21.9453 7.20486 26.2847 3.08046 31.6825 0.475586C21.2044 1.66949 15.8066 5.46827 10.1971 11.0036C3.95255 16.9732 3 29.0207 3 29.0207C3 37.4866 4.48175 40.0914 10.3029 48.3402C16.1241 56.589 28.9307 57.6744 34.0109 58C34.0109 58 24.3796 55.7207 21.4161 52.5732Z" fill="#DBDCE3"/>
<path d="M20.3579 23.0512C20.3579 20.5549 21.8397 18.4927 23.7448 18.4927C25.6499 18.4927 27.1316 20.5549 27.1316 23.0512C27.1316 25.5476 25.6499 27.6098 23.7448 27.6098C21.8397 27.6098 20.3579 25.5476 20.3579 23.0512Z" fill="#F5F6FA"/>
<path d="M46.0763 27.6098C47.9468 27.6098 49.4632 25.5688 49.4632 23.0512C49.4632 20.5336 47.9468 18.4927 46.0763 18.4927C44.2058 18.4927 42.6895 20.5336 42.6895 23.0512C42.6895 25.5688 44.2058 27.6098 46.0763 27.6098Z" fill="#F5F6FA"/>
<path d="M20.7817 22.4001C20.7817 19.9037 22.2635 17.8416 24.1686 17.8416C26.0737 17.8416 27.5555 19.9037 27.5555 22.4001C27.5555 24.8964 26.0737 26.9586 24.1686 26.9586C22.3693 26.9586 20.7817 24.8964 20.7817 22.4001Z" fill="#727995"/>
<path d="M43.1133 22.4001C43.1133 19.9037 44.595 17.8416 46.5001 17.8416C48.4052 17.8416 49.887 19.9037 49.887 22.4001C49.887 24.8964 48.4052 26.9586 46.5001 26.9586C44.595 26.9586 43.1133 24.8964 43.1133 22.4001Z" fill="#727995"/>
<path d="M28.9034 38.6808C28.9034 38.6808 28.7766 37.2858 29.4108 37.2858C30.0451 37.2858 37.2756 37.6662 38.6076 37.5394C40.003 37.4126 44.1256 37.2858 44.633 37.2858C45.1404 37.2858 45.521 37.4126 45.4576 38.0467C45.4576 38.554 45.5844 39.4417 44.6965 39.5686C43.8085 39.6954 40.7006 39.6954 39.1784 39.8222C37.6562 39.949 34.1043 40.3295 32.6455 40.3295C31.2502 40.3295 29.9817 40.5831 29.5377 40.0759C29.0303 39.4417 28.9034 39.3149 28.9034 38.6808Z" fill="#F5F6FA"/>
<path d="M28.9041 38.2158C28.9041 38.2158 28.7693 37.2858 29.4432 37.2858C30.1171 37.2858 37.7996 37.5394 39.2147 37.4549C40.6973 37.3703 45.0777 37.2858 45.6168 37.2858C46.1559 37.2858 46.5603 37.3703 46.4929 37.7931C46.4929 38.1312 46.6276 38.7231 45.6842 38.8076C44.7407 38.8922 41.4386 38.8922 39.8213 38.9767C38.2039 39.0613 34.4301 39.3149 32.8801 39.3149C31.3975 39.3149 30.0497 39.484 29.578 39.1458C29.0388 38.7231 28.9041 38.6385 28.9041 38.2158Z" fill="#727995"/>
<path fill-rule="evenodd" clip-rule="evenodd" d="M13.3188 37.7507V43.9783C13.3188 44.8717 13.167 45.7521 12.8887 46.5807L12.5218 47.6683C11.9399 49.3773 11.6362 51.1769 11.6362 52.9766C11.6362 60.7449 17.696 65.3541 26.0457 63.6451L30.9796 62.7258C31.6501 62.5963 32.1308 62.0008 32.1308 61.3146V60.9909C32.1308 60.24 31.5615 59.6055 30.8151 59.5538C30.7139 59.5408 30.6759 59.3984 30.7772 59.3595L32.017 58.6992C32.6369 58.3626 33.029 57.7153 33.029 56.9902C33.029 55.9285 32.1814 55.0611 31.144 55.0611C30.9416 55.0611 30.8657 54.7892 31.0302 54.6727L31.7639 54.1807C32.5103 53.6887 32.8393 52.7435 32.5609 51.8761C32.2953 51.0475 31.5362 50.4778 30.6886 50.4778C30.5747 50.4778 30.5368 50.3095 30.6506 50.2706L39.4684 46.8396C40.4805 46.4512 40.0168 44.286 39.6246 43.2502C39.2577 42.2921 38.2583 41.7742 37.2968 42.0461L21.9512 46.3575C20.0283 46.9013 18.9611 46.9432 18.1009 45.1047C17.6707 44.1855 17.443 43.2015 17.4304 42.1787L17.3924 39.887C17.3671 38.7995 17.0508 37.7378 16.4689 36.8315L16.4183 36.7538C15.9376 36.0288 14.9761 35.7828 14.2297 36.21L14.1917 36.223C13.6477 36.5337 13.3188 37.1163 13.3188 37.7507Z" fill="#D0D1D9"/>
<path fill-rule="evenodd" clip-rule="evenodd" d="M15.2157 36.0116C14.883 35.9716 14.538 36.0339 14.2297 36.2125L14.1917 36.2256C13.6477 36.5401 13.3188 37.1296 13.3188 37.7716V44.0733C13.3188 44.9773 13.167 45.8682 12.8887 46.7067L12.5218 47.8072C11.9399 49.5365 11.6362 51.3576 11.6362 53.1787C11.6362 60.0364 16.2482 64.4611 22.969 64.3305C18.1184 61.8218 14.6919 53.9925 15.8778 44.1533C15.4571 41.3514 15.2424 38.6164 15.2157 36.0116Z" fill="#BEC1CE"/>
</g>
<defs>
<clipPath id="clip0">
<rect width="64" height="64" fill="white"/>
</clipPath>
</defs>
</svg>
