<svg width="64" height="64" viewBox="0 0 64 64" fill="none" xmlns="http://www.w3.org/2000/svg">
<g clip-path="url(#clip0)">
<path d="M0 32C0 32 1.0511 18.6967 7.94161 11.9851C14.7153 5.39329 21.2555 0.958836 35.0365 3.42689e-05C48.8175 -0.958767 57.3431 13.4233 58.7445 15.9401C60.0292 18.457 64 26.0075 64 31.8802C64 37.7528 64 50.0974 55.9416 55.4907C47.7664 61.0038 39.9416 64.1199 34.3358 63.8802C28.7299 63.5206 14.4818 62.3221 8.17518 53.2135C1.63504 44.2248 0 41.3483 0 32Z" fill="#FDD528"/>
<path d="M29.0096 7.07144C32.6442 6.63643 39.0048 6.20142 45.8196 7.94146C46.5011 8.15896 47.1826 7.72395 46.9554 7.39769C44.6838 5.3314 38.5504 1.52507 28.3281 6.31017C27.6466 6.74518 28.101 7.18019 29.0096 7.07144Z" fill="#FFEC4C"/>
<path d="M20.3212 58.0076C16.9343 54.5319 12.4964 49.9776 12.9635 34.7566C13.4307 19.5357 16.9343 14.0226 19.5037 10.0675C20.9051 7.9102 25.6934 3.3559 31.6496 0.479492C20.0876 1.79784 14.1314 5.9926 7.94161 12.105C1.0511 18.6967 0 32.0001 0 32.0001C0 41.3484 1.63504 44.2248 8.05839 53.3334C14.4818 62.442 28.6131 63.6405 34.219 64.0001C34.219 64.0001 23.5912 61.4832 20.3212 58.0076Z" fill="#FAB920"/>
<path d="M18.9199 21.0938C18.9199 18.3372 20.555 16.0601 22.6571 16.0601C24.7593 16.0601 26.3944 18.3372 26.3944 21.0938C26.3944 23.8503 24.7593 26.1275 22.6571 26.1275C20.555 26.1275 18.9199 23.8503 18.9199 21.0938Z" fill="#88281F"/>
<path d="M43.4453 21.0938C43.4453 18.3372 45.0803 16.0601 47.1825 16.0601C49.2847 16.0601 50.9198 18.3372 50.9198 21.0938C50.9198 23.8503 49.2847 26.1275 47.1825 26.1275C45.1971 26.0076 43.4453 23.8503 43.4453 21.0938Z" fill="#88281F"/>
<path d="M35.1533 54.4119C35.1533 54.4119 52.9052 54.7715 56.0584 37.6329C56.292 36.3146 55.4745 34.9962 54.073 34.8764C48.3504 34.2771 32.3504 32.9588 14.2482 35.4756C12.9636 35.5955 12.146 36.9138 12.3796 38.2322C13.3139 43.0262 17.1679 53.3333 35.1533 54.4119Z" fill="#88281F"/>
<path d="M37.022 53.2135C37.022 53.2135 26.1607 54.0525 21.606 49.3783C21.606 49.3783 22.0731 49.0188 22.1899 49.0188C22.7738 48.6592 23.3578 48.4195 24.0585 48.1798C25.2264 47.8203 26.3943 47.7004 27.5622 47.5806C28.2629 47.5806 28.9636 47.5806 29.6644 47.5806C30.3651 47.5806 31.0658 47.7004 31.7665 47.9401C32.4673 48.1798 33.168 48.5394 33.7519 48.7791C34.6863 49.2585 35.5038 49.9776 36.2045 50.8165C36.6717 51.4158 37.022 52.2547 37.022 53.2135Z" fill="#FF594B"/>
<path d="M18.5693 36.0749C18.5693 36.0749 34.1022 35.1161 51.5036 35.4757C51.5036 35.4757 50.5693 39.0712 34.5693 39.0712C30.9489 38.9513 19.2701 40.3896 18.5693 36.0749Z" fill="#FCFFFF"/>
</g>
<defs>
<clipPath id="clip0">
<rect width="64" height="64" fill="white"/>
</clipPath>
</defs>
</svg>
