<svg width="64" height="64" viewBox="0 0 64 64" fill="none" xmlns="http://www.w3.org/2000/svg">
<g clip-path="url(#clip0)">
<path d="M0 32C0 32 1.0511 18.6967 7.94161 11.9851C14.7153 5.39329 21.2555 0.958836 35.0365 3.42689e-05C48.8175 -0.958767 57.3431 13.4233 58.7445 15.9401C60.0292 18.457 64 26.0075 64 31.8802C64 37.7528 64 50.0974 55.9416 55.4907C47.7664 61.0038 39.9416 64.1199 34.3358 63.8802C28.7299 63.5206 14.4818 62.3221 8.17518 53.2135C1.63504 44.2248 0 41.3483 0 32Z" fill="#FDD528"/>
<path d="M29.0096 7.07144C32.6442 6.63643 39.0048 6.20142 45.8196 7.94146C46.5011 8.15896 47.1826 7.72395 46.9554 7.39769C44.6838 5.3314 38.5504 1.52507 28.3281 6.31017C27.6466 6.74518 28.101 7.18019 29.0096 7.07144Z" fill="#FFEC4C"/>
<path d="M20.3212 58.0076C16.9343 54.5319 12.4964 49.9776 12.9635 34.7566C13.4307 19.5357 16.9343 14.0226 19.5037 10.0675C20.9051 7.9102 25.6934 3.3559 31.6496 0.479492C20.0876 1.79784 14.1314 5.9926 7.94161 12.105C1.0511 18.6967 0 32.0001 0 32.0001C0 41.3484 1.63504 44.2248 8.05839 53.3334C14.4818 62.442 28.6131 63.6405 34.219 64.0001C34.219 64.0001 23.5912 61.4832 20.3212 58.0076Z" fill="#FAB920"/>
<path d="M18.2188 22.1724C18.2188 19.4158 19.8538 17.1387 21.956 17.1387C24.0582 17.1387 25.6932 19.4158 25.6932 22.1724C25.6932 24.9289 24.0582 27.2061 21.956 27.2061C19.8538 27.2061 18.2188 24.9289 18.2188 22.1724Z" fill="#FAB920"/>
<path d="M46.4819 27.2061C48.5459 27.2061 50.2191 24.9524 50.2191 22.1724C50.2191 19.3923 48.5459 17.1387 46.4819 17.1387C44.4178 17.1387 42.7446 19.3923 42.7446 22.1724C42.7446 24.9524 44.4178 27.2061 46.4819 27.2061Z" fill="#FAB920"/>
<path d="M26.1603 42.3072C27.3282 41.5881 28.1457 42.5469 28.8464 43.1462C31.299 44.9439 33.8683 46.6218 37.0216 46.8615C41.5764 47.3409 45.1968 46.0226 47.6494 41.8278C48.1165 40.9889 48.5837 39.1911 49.7515 39.7904C51.153 40.5095 49.6348 41.8278 49.4012 42.7866V42.9065C47.8829 46.0226 45.4304 48.06 42.2771 49.1387C38.5399 50.3372 34.6858 50.3372 30.9486 48.5394C29.1968 47.7005 27.7953 46.3821 26.6275 44.7042C26.1603 44.105 25.6931 43.266 26.1603 42.3072Z" fill="#831C1A"/>
<path d="M26.1604 42.3071C26.6276 45.6629 30.5984 48.779 34.686 49.3783C40.759 50.2172 45.6641 48.1798 49.4013 43.0262C49.4013 45.3034 47.6495 46.5019 46.248 47.7004C40.9926 52.4944 31.5327 51.7753 26.8612 46.5019C25.8101 45.3034 24.6422 43.985 26.1604 42.3071Z" fill="#FAB920"/>
<path d="M18.9199 21.0938C18.9199 18.3372 20.555 16.0601 22.6571 16.0601C24.7593 16.0601 26.3944 18.3372 26.3944 21.0938C26.3944 23.8503 24.7593 26.1275 22.6571 26.1275C20.555 26.1275 18.9199 23.8503 18.9199 21.0938Z" fill="#88281F"/>
<path d="M43.4453 21.0938C43.4453 18.3372 45.0803 16.0601 47.1825 16.0601C49.2847 16.0601 50.9198 18.3372 50.9198 21.0938C50.9198 23.8503 49.2847 26.1275 47.1825 26.1275C45.1971 26.0076 43.4453 23.8503 43.4453 21.0938Z" fill="#88281F"/>
</g>
<defs>
<clipPath id="clip0">
<rect width="64" height="64" fill="white"/>
</clipPath>
</defs>
</svg>
