<svg xmlns="http://www.w3.org/2000/svg" width="64" height="64" viewBox="0 0 64 64" fill="none">
<path d="M0 32C0 32 1.0511 18.6967 7.94161 11.9851C14.7153 5.39329 21.2555 0.958836 35.0365 3.42689e-05C48.8175 -0.958767 57.3431 13.4233 58.7445 15.9401C60.0292 18.457 64 26.0075 64 31.8802C64 37.7528 64 50.0974 55.9416 55.4907C47.7664 61.0038 39.9416 64.1199 34.3358 63.8802C28.7299 63.5206 14.4818 62.3221 8.17518 53.2135C1.63504 44.2248 0 41.3483 0 32Z" fill="url(#paint0_linear)"/>
<path d="M47.6498 33.9177C43.095 33.9177 39.4746 29.8428 39.4746 24.8091C39.4746 19.7753 43.095 15.7004 47.6498 15.7004C52.2045 15.7004 55.825 19.7753 55.825 24.8091C55.825 29.8428 52.2045 33.9177 47.6498 33.9177ZM47.6498 16.6592C43.679 16.6592 40.4089 20.2547 40.4089 24.8091C40.4089 29.2435 43.679 32.9589 47.6498 32.9589C51.6206 32.9589 54.8907 29.3634 54.8907 24.8091C54.8907 20.3746 51.6206 16.6592 47.6498 16.6592Z" fill="#FAB920"/>
<path d="M23.8246 33.9177C19.2699 33.9177 15.6494 29.8428 15.6494 24.8091C15.6494 19.7753 19.2699 15.7004 23.8246 15.7004C28.3793 15.7004 31.9998 19.7753 31.9998 24.8091C31.9998 29.8428 28.3793 33.9177 23.8246 33.9177ZM23.8246 16.6592C19.8538 16.6592 16.5837 20.2547 16.5837 24.8091C16.5837 29.2435 19.8538 32.9589 23.8246 32.9589C27.7954 32.9589 31.0655 29.3634 31.0655 24.8091C31.0655 20.3746 27.7954 16.6592 23.8246 16.6592Z" fill="#FAB920"/>
<ellipse cx="24" cy="25" rx="8" ry="9" fill="white"/>
<ellipse cx="48" cy="25" rx="8" ry="9" fill="white"/>
<path d="M29.0096 7.07144C32.6442 6.63643 39.0048 6.20142 45.8196 7.94146C46.5011 8.15896 47.1826 7.72395 46.9554 7.39769C44.6838 5.3314 38.5504 1.52507 28.3281 6.31017C27.6466 6.74518 28.101 7.18019 29.0096 7.07144Z" fill="#B7E5FF"/>
<path d="M20.3212 58.0076C16.9343 54.5319 12.4964 49.9776 12.9635 34.7566C13.4307 19.5357 16.9343 14.0226 19.5037 10.0675C20.9051 7.9102 25.6934 3.3559 31.6496 0.479492C20.0876 1.79784 14.1314 5.9926 7.94161 12.105C1.0511 18.6967 0 32.0001 0 32.0001C0 41.3484 1.63504 44.2248 8.05839 53.3334C14.4818 62.442 28.6131 63.6405 34.219 64.0001C34.219 64.0001 23.5912 61.4832 20.3212 58.0076Z" fill="url(#paint1_linear)"/>
<path d="M23.8247 49.4982C23.8247 48.1798 24.5254 47.221 25.2262 46.3821C30.1313 40.2697 40.2919 40.1499 45.3138 46.2622C46.2481 47.4607 47.1824 48.6592 46.832 50.3371C46.0145 51.1761 45.197 50.5768 44.4962 50.0974C39.8247 47.1012 34.9196 46.9813 29.8977 48.7791C28.613 49.2585 27.3284 49.7379 26.0437 50.0974C25.2262 50.3371 24.2919 50.5768 23.8247 49.4982Z" fill="#841D1A"/>
<path d="M23.8248 49.4981C24.8759 50.3371 25.8102 49.618 26.6278 49.3783C29.0803 48.5393 31.5329 47.4607 34.219 47.1011C37.8394 46.6217 41.3431 47.3408 44.4964 49.3783C45.1971 49.8577 45.8978 50.5768 46.8321 50.2172C46.7154 52.2547 45.4307 51.2959 44.73 50.9363C42.511 49.9775 40.1752 49.3783 37.8394 48.8989C35.2701 48.4195 32.9343 49.0187 30.4818 49.4981C28.73 49.8577 27.0949 50.5768 25.4599 50.9363C24.292 51.2959 23.0073 51.4157 23.8248 49.4981Z" fill="#FDB900"/>
<path d="M50.2191 24.3296C50.2191 23.2509 49.5184 22.2921 48.7009 22.2921C47.8833 22.2921 47.1826 23.2509 47.1826 24.3296C47.1826 25.4082 47.8833 26.367 48.7009 26.367C49.5184 26.367 50.2191 25.5281 50.2191 24.3296Z" fill="#88281F"/>
<path d="M26.2773 24.3296C26.2773 23.0113 25.4597 21.9326 24.4087 21.9326C23.3576 21.9326 22.54 23.0113 22.54 24.3296C22.54 25.648 23.3576 26.7266 24.4087 26.7266C25.4597 26.7266 26.2773 25.648 26.2773 24.3296Z" fill="#88281F"/>
<defs>
<linearGradient id="paint0_linear" x1="31.9369" y1="35.4843" x2="32.5607" y2="0.840509" gradientUnits="userSpaceOnUse">
<stop stop-color="#FDD528"/>
<stop offset="0.0665562" stop-color="#EAD445"/>
<stop offset="0.1917" stop-color="#CAD376"/>
<stop offset="0.3203" stop-color="#AFD2A0"/>
<stop offset="0.45" stop-color="#98D1C2"/>
<stop offset="0.5815" stop-color="#87D0DD"/>
<stop offset="0.7153" stop-color="#7BCFF0"/>
<stop offset="0.8529" stop-color="#73CFFB"/>
<stop offset="1" stop-color="#71CFFF"/>
</linearGradient>
<linearGradient id="paint1_linear" x1="17.1221" y1="27.6966" x2="17.1221" y2="0.634219" gradientUnits="userSpaceOnUse">
<stop stop-color="#FAB920"/>
<stop offset="0.0825789" stop-color="#DCBA45"/>
<stop offset="0.2056" stop-color="#B5BC76"/>
<stop offset="0.3319" stop-color="#93BEA0"/>
<stop offset="0.4595" stop-color="#77BFC2"/>
<stop offset="0.5887" stop-color="#61C0DD"/>
<stop offset="0.7202" stop-color="#52C0F0"/>
<stop offset="0.8554" stop-color="#49C1FB"/>
<stop offset="1" stop-color="#46C1FF"/>
</linearGradient>
</defs>
</svg>