<svg width="64" height="64" viewBox="0 0 64 64" fill="none" xmlns="http://www.w3.org/2000/svg">
<path d="M0 31.9998C0 31.9998 1.0511 18.6964 7.94161 11.9848C14.7153 5.39305 21.2555 0.958589 35.0365 -0.000212464C48.8175 -0.839164 57.3431 13.423 58.7445 15.9399C60.0292 18.4567 64 26.0073 64 31.8799C64 37.7526 64 50.0972 55.9416 55.4904C47.7664 61.0035 39.9416 64.1196 34.3358 63.8799C28.7299 63.5204 14.4818 62.3219 8.17518 53.2133C1.63504 44.2245 0 41.3481 0 31.9998Z" fill="#FDD528"/>
<path d="M29.0096 7.07144C32.6442 6.63643 39.0048 6.20142 45.8196 7.94146C46.5011 8.15896 47.1826 7.72395 46.9554 7.39769C44.6838 5.3314 38.5504 1.52507 28.3281 6.31017C27.6466 6.74518 28.101 7.18019 29.0096 7.07144Z" fill="#FFEC4C"/>
<path d="M20.3212 58.0076C16.9343 54.5319 12.4964 49.9776 12.9635 34.7566C13.4307 19.5357 16.9343 14.0226 19.5037 10.0675C20.9051 7.9102 25.6934 3.3559 31.6496 0.479492C20.0876 1.79784 14.1314 5.9926 7.94161 12.105C1.0511 18.6967 0 32.0001 0 32.0001C0 41.3484 1.63504 44.2248 8.05839 53.3334C14.4818 62.442 28.6131 63.6405 34.219 64.0001C34.219 64.0001 23.5912 61.4832 20.3212 58.0076Z" fill="#FAB920"/>
<path d="M18.8027 25.648C18.8027 22.8914 20.4378 20.6143 22.54 20.6143C24.6421 20.6143 26.2772 22.8914 26.2772 25.648C26.2772 28.4045 24.6421 30.6817 22.54 30.6817C20.4378 30.5618 18.8027 28.4045 18.8027 25.648Z" fill="#FAB920"/>
<path d="M43.3286 25.648C43.3286 22.8914 44.9637 20.6143 47.0658 20.6143C49.168 20.6143 50.8031 22.8914 50.8031 25.648C50.8031 28.4045 49.168 30.6817 47.0658 30.6817C45.0804 30.5618 43.3286 28.4045 43.3286 25.648Z" fill="#FAB920"/>
<path d="M27.3284 46.7416C27.0948 47.7004 26.2773 47.221 25.6933 47.221C25.4597 47.221 25.2262 46.9813 25.1094 46.7416C25.1094 46.1424 25.5765 45.9027 25.9269 45.5431C29.7809 43.1461 33.8685 41.4682 38.4232 40.869C41.1094 40.5094 43.6787 40.03 46.3648 40.03C47.5327 40.03 48.7006 40.1499 49.8685 40.3896C52.2043 40.7491 53.3721 42.6667 52.905 44.9439C52.5546 46.9813 50.3357 48.5394 48.3503 48.06C44.2627 47.221 40.1751 46.2622 36.0875 45.663C35.27 45.5431 34.5692 45.5431 33.7517 45.5431C33.9853 44.824 34.5692 44.9439 35.1532 44.9439C38.1897 44.824 41.1094 44.824 44.1459 45.4233C44.8466 45.5431 45.5473 45.5431 46.3648 45.5431C46.9488 45.5431 47.6495 45.4233 47.6495 44.5843C47.7663 43.8652 47.1824 43.5057 46.5984 43.266C45.5473 42.9064 44.4962 42.7866 43.4451 42.6667C38.1897 42.3072 33.2846 43.3858 28.4962 45.663C27.9123 45.9027 27.3284 46.1424 27.3284 46.7416Z" fill="#FAB920"/>
<path d="M27.3284 46.7416C27.0948 46.6217 26.7444 46.6217 26.6276 46.5019C26.394 46.1423 26.8612 46.0225 27.0948 45.9026C33.1678 42.7865 39.3576 41.3483 46.1313 42.5468C47.6495 42.7865 48.5838 43.7453 48.3503 44.5843C47.9999 45.9026 46.832 45.9026 45.7809 45.7828C42.3941 45.4232 39.0072 44.9438 35.6203 45.1835C35.0364 45.1835 34.5692 45.0637 33.9853 45.4232C32.2335 45.5431 30.5984 45.9026 28.9634 46.382C28.2627 46.8614 27.7955 46.7416 27.3284 46.7416Z" fill="#872B01"/>
<path d="M19.6206 24.6892C19.6206 21.9327 21.2556 19.6555 23.3578 19.6555C25.46 19.6555 27.0951 21.9327 27.0951 24.6892C27.0951 27.4458 25.46 29.7229 23.3578 29.7229C21.3724 29.7229 19.6206 27.4458 19.6206 24.6892Z" fill="#88281F"/>
<path d="M44.2627 24.6892C44.2627 21.9327 45.8977 19.6555 47.9999 19.6555C50.1021 19.6555 51.7371 21.9327 51.7371 24.6892C51.7371 27.4458 50.1021 29.7229 47.9999 29.7229C45.8977 29.7229 44.2627 27.4458 44.2627 24.6892Z" fill="#88281F"/>
</svg>
