<svg aria-hidden="true" style="position: absolute; width: 0; height: 0; overflow: hidden;" version="1.1" xmlns="http://www.w3.org/2000/svg" xmlns:xlink="http://www.w3.org/1999/xlink">
<defs>
<symbol id="icon-user" viewBox="0 0 32 32">
<path d="M16 1.778c-7.858 0-14.222 6.364-14.222 14.222s6.364 14.222 14.222 14.222 14.222-6.364 14.222-14.222-6.364-14.222-14.222-14.222zM16 6.667c2.204 0 4 1.796 4 4s-1.796 4-4 4-4-1.796-4-4 1.796-4 4-4zM16 25.778c-3.307 0-6.204-1.636-7.982-4.142 0.196-2.578 5.369-3.858 7.982-3.858s7.787 1.28 7.982 3.858c-1.778 2.507-4.676 4.142-7.982 4.142z"></path>
</symbol>
<symbol id="icon-lock" viewBox="0 0 24 32">
<path fill="#b3b3b3" style="fill: var(--color1, #b3b3b3)" d="M6.957 11.13v-3.478c0-2.685 2.184-4.87 4.87-4.87s4.87 2.184 4.87 4.87v3.478h2.783v-3.478c0-4.219-3.433-7.652-7.652-7.652s-7.652 3.433-7.652 7.652v3.478h2.783z"></path>
<path fill="#fad84b" style="fill: var(--color2, #fad84b)" d="M22.261 32h-20.87c-0.768 0-1.391-0.623-1.391-1.391v-18.087c0-0.768 0.623-1.391 1.391-1.391h20.87c0.768 0 1.391 0.623 1.391 1.391v18.087c0 0.768-0.623 1.391-1.391 1.391z"></path>
<path fill="#a58c21" style="fill: var(--color3, #a58c21)" d="M14.609 19.478c0-1.537-1.246-2.783-2.783-2.783s-2.783 1.246-2.783 2.783c0 1.027 0.563 1.915 1.391 2.397v4.56h2.783v-4.56c0.828-0.482 1.391-1.369 1.391-2.397z"></path>
</symbol>
<symbol id="icon-ready" viewBox="0 0 34 32">
<path fill="#e2e1df" style="fill: var(--color4, #e2e1df)" d="M16 32c-8.822 0-16-7.177-16-16s7.178-16 16-16c2.981 0 5.888 0.825 8.41 2.386 0.358 0.221 0.468 0.691 0.247 1.049s-0.691 0.468-1.049 0.247c-2.28-1.411-4.911-2.158-7.608-2.158-7.982 0-14.476 6.494-14.476 14.476s6.494 14.476 14.476 14.476c7.982 0 14.476-6.494 14.476-14.476 0-1.289-0.17-2.569-0.504-3.804-0.11-0.406 0.129-0.825 0.536-0.935 0.407-0.108 0.825 0.13 0.934 0.536 0.371 1.365 0.558 2.779 0.558 4.203 0 8.823-7.178 16-16 16z"></path>
<path fill="#00c956" style="fill: var(--color5, #00c956)" d="M16 19.81c-0.195 0-0.39-0.074-0.539-0.223l-6.095-6.095c-0.298-0.298-0.298-0.78 0-1.077s0.78-0.298 1.077 0l5.557 5.557 16.223-16.223c0.298-0.298 0.78-0.298 1.077 0s0.298 0.78 0 1.077l-16.762 16.762c-0.149 0.149-0.344 0.223-0.539 0.223z"></path>
</symbol>
</defs>
</svg>
