<svg aria-hidden="true" style="position: absolute; width: 0; height: 0; overflow: hidden;" version="1.1" xmlns="http://www.w3.org/2000/svg" xmlns:xlink="http://www.w3.org/1999/xlink">
<defs>

<symbol id="icon-folder" viewBox="0 0 32 32">
<path fill="#7dbcf5" style="fill: var(--color1, #7dbcf5)" d="M32 26.4v-17.8c0-0.884-0.716-1.6-1.6-1.6h-14.737c-0.424 0-0.831-0.169-1.131-0.469l-2.063-2.063c-0.3-0.3-0.707-0.469-1.131-0.469h-9.737c-0.884 0-1.6 0.716-1.6 1.6v20.8c0 0.884 0.716 1.6 1.6 1.6h28.8c0.884 0 1.6-0.716 1.6-1.6z"></path>
</symbol>

<symbol id="icon-file" viewBox="0 0 26 32">
<path fill="#e6e6e6" style="fill: var(--color1, #e6e6e6)" d="M24.333 31.334h-22.667c-0.737 0-1.333-0.597-1.333-1.333v-28c0-0.737 0.597-1.333 1.333-1.333h16l8 8v21.333c0 0.737-0.597 1.333-1.333 1.333z"></path>
<path fill="#b3b3b3" style="fill: var(--color2, #b3b3b3)" d="M17.666 0.667v6.667c0 0.737 0.597 1.333 1.333 1.333h6.667l-8-8z"></path>
</symbol>

<symbol id="icon-book" viewBox="0 0 32 32">
<path d="M29.6957 29H2.30435C1.5837 29 1 28.4347 1 27.7368V6.26316C1 5.56526 1.5837 5 2.30435 5H29.6957C30.4163 5 31 5.56526 31 6.26316V27.7368C31 28.4347 30.4163 29 29.6957 29Z" fill="#314B8C"/>
<path d="M16 26.6667C16 26.6667 12.7867 25.4027 4.66667 25.336C4.3 25.3333 4 25.0373 4 24.6707V4C12.6113 4 16 5.33333 16 5.33333V26.6667Z" fill="#87613E"/>
<path d="M16 26.6667C16 26.6667 19.2133 25.4027 27.3333 25.336C27.7 25.3333 28 25.0373 28 24.67V4C19.3887 4 16 5.33333 16 5.33333V26.6667Z" fill="#87613E"/>
<path d="M16 26C16 26 11.632 23.4694 3.6461 23.338C3.29055 23.332 3 23.0393 3 22.6745V2.66961C3 2.29818 3.30095 1.99344 3.663 2.00011C11.6378 2.13414 16 4.66143 16 4.66143V26Z" fill="#E3E4EA"/>
<path d="M16 26C16 26 20.368 23.4694 28.3539 23.338C28.7094 23.332 29 23.0393 29 22.6745V2.66961C29 2.29818 28.699 1.99344 28.337 2.00011C20.3621 2.13414 16 4.66143 16 4.66143V26Z" fill="#D5D7E1"/>
</symbol>

<symbol id="icon-audio" viewBox="0 0 32 32">
<path d="M27.3333 31.3334H4.66666C3.92999 31.3334 3.33333 30.7367 3.33333 30V2.00002C3.33333 1.26335 3.92999 0.666687 4.66666 0.666687H20.6667L28.6667 8.66669V30C28.6667 30.7367 28.07 31.3334 27.3333 31.3334Z" fill="#E3E4EA"/>
<path d="M20.6667 0.666687V7.33335C20.6667 8.07002 21.2633 8.66669 22 8.66669H28.6667L20.6667 0.666687Z" fill="#B1B5CD"/>
<path d="M20.3233 11.75C20.1113 11.632 19.852 11.6387 19.6467 11.7673L14.4753 15H10.6667C10.2987 15 10 15.2987 10 15.6667V19.6667C10 20.0347 10.2987 20.3333 10.6667 20.3333H14.4753L19.6467 23.5653C19.7547 23.6327 19.8773 23.6667 20 23.6667C20.1113 23.6667 20.222 23.6387 20.3233 23.5833C20.5353 23.4653 20.6667 23.2427 20.6667 23V12.3333C20.6667 12.0907 20.5353 11.868 20.3233 11.75Z" fill="#575C7B"/>
</symbol>

<symbol id="icon-docs" viewBox="0 0 32 32">
<path d="M29.3333 14.3333H2.66666L0.666656 11.6667L3.33332 9H28.6667L31.3333 11.6667L29.3333 14.3333Z" fill="#12376B"/>
<path d="M27.3333 31.3334H4.66665C3.92998 31.3334 3.33331 30.7367 3.33331 30V2.00002C3.33331 1.26335 3.92998 0.666687 4.66665 0.666687H20.6666L28.6666 8.66669V30C28.6666 30.7367 28.07 31.3334 27.3333 31.3334Z" fill="#E3E4EA"/>
<path d="M20.6667 0.666687V7.33335C20.6667 8.07002 21.2633 8.66669 22 8.66669H28.6667L20.6667 0.666687Z" fill="#B1B5CD"/>
<path d="M30 23.6667H1.99999C1.26332 23.6667 0.666656 23.07 0.666656 22.3334V11.6667H31.3333V22.3334C31.3333 23.07 30.7367 23.6667 30 23.6667Z" fill="#27549B"/>
<path d="M13.0166 17.6045C13.0166 18.4785 12.7766 19.1512 12.2953 19.6238C11.8153 20.0972 11.1386 20.3332 10.2666 20.3332H8.57327V15.0978H10.3853C11.2253 15.0978 11.8739 15.3125 12.3313 15.7425C12.7893 16.1725 13.0166 16.7925 13.0166 17.6045ZM11.5493 17.6545C11.5493 17.1745 11.4539 16.8192 11.2639 16.5872C11.0746 16.3552 10.7859 16.2398 10.3993 16.2398H9.98794V19.1718H10.3033C10.7333 19.1718 11.0479 19.0465 11.2486 18.7972C11.4493 18.5478 11.5493 18.1678 11.5493 17.6545Z" fill="white"/>
<path d="M18.854 17.7079C18.854 18.5892 18.638 19.2585 18.2053 19.7172C17.7726 20.1759 17.14 20.4045 16.3073 20.4045C15.4866 20.4045 14.856 20.1739 14.4186 19.7132C13.9806 19.2532 13.7613 18.5819 13.7613 17.7012C13.7613 16.8292 13.9793 16.1639 14.4146 15.7045C14.8506 15.2452 15.484 15.0152 16.3146 15.0152C17.148 15.0152 17.7793 15.2439 18.2093 15.6992C18.6393 16.1545 18.854 16.8252 18.854 17.7079ZM15.2513 17.7079C15.2513 18.7205 15.604 19.2259 16.308 19.2259C16.666 19.2259 16.932 19.1032 17.104 18.8572C17.2773 18.6112 17.3646 18.2285 17.3646 17.7072C17.3646 17.1852 17.276 16.7985 17.1013 16.5492C16.9253 16.2999 16.664 16.1745 16.3146 16.1745C15.606 16.1759 15.2513 16.6865 15.2513 17.7079Z" fill="white"/>
<path d="M22.13 16.1833C21.7933 16.1833 21.5313 16.3206 21.342 16.5966C21.1533 16.8719 21.0593 17.2519 21.0593 17.7366C21.0593 18.7446 21.442 19.2486 22.2087 19.2486C22.44 19.2486 22.6653 19.2159 22.882 19.1513C23.0987 19.0866 23.3173 19.0093 23.5373 18.9186V20.1139C23.1 20.3079 22.6067 20.4046 22.054 20.4046C21.264 20.4046 20.658 20.1753 20.2373 19.7173C19.8153 19.2586 19.6047 18.5959 19.6047 17.7306C19.6047 17.1886 19.7073 16.7126 19.9107 16.3013C20.1153 15.8906 20.4093 15.5746 20.792 15.3539C21.1747 15.1333 21.6253 15.0233 22.1433 15.0233C22.7093 15.0233 23.25 15.1459 23.766 15.3919L23.3333 16.5053C23.14 16.4146 22.9467 16.3386 22.7533 16.2759C22.56 16.2139 22.352 16.1833 22.13 16.1833Z" fill="white"/>
</symbol>

<symbol id="icon-img" viewBox="0 0 32 32">
<path d="M27.3333 31.3334H4.66666C3.92999 31.3334 3.33333 30.7367 3.33333 30V2.00002C3.33333 1.26335 3.92999 0.666687 4.66666 0.666687H20.6667L28.6667 8.66669V30C28.6667 30.7367 28.07 31.3334 27.3333 31.3334Z" fill="#E3E4EA"/>
<path d="M24.7117 24.7421L19.7117 13.9088C19.65 13.7755 19.5229 13.6846 19.3771 13.6692C19.2279 13.6542 19.0879 13.7159 19 13.8338L14.25 20.1667L11.25 17.9167C11.1508 17.8425 11.0246 17.8163 10.9042 17.8442C10.7838 17.8725 10.6825 17.953 10.6271 18.0634L7.29375 24.73C7.22917 24.8592 7.23625 25.0125 7.31209 25.1355C7.38792 25.2584 7.52209 25.3334 7.66667 25.3334H24.3333C24.4754 25.3334 24.6079 25.2609 24.6842 25.1413C24.7608 25.0217 24.7713 24.8713 24.7117 24.7421Z" fill="#575C7B"/>
<path d="M13.0833 13.6667C14.4641 13.6667 15.5833 12.5474 15.5833 11.1667C15.5833 9.78598 14.4641 8.66669 13.0833 8.66669C11.7026 8.66669 10.5833 9.78598 10.5833 11.1667C10.5833 12.5474 11.7026 13.6667 13.0833 13.6667Z" fill="#EFD358"/>
<path d="M20.6667 0.666687V7.33335C20.6667 8.07002 21.2633 8.66669 22 8.66669H28.6667L20.6667 0.666687Z" fill="#B1B5CD"/>
</symbol>

<symbol id="icon-pdf" viewBox="0 0 32 32">
<path d="M29.3333 14H2.66666L0.666656 11.3334L3.33332 8.66669H28.6667L31.3333 11.3334L29.3333 14Z" fill="#870000"/>
<path d="M27.3333 31.3334H4.66665C3.92998 31.3334 3.33331 30.7367 3.33331 30V2.00002C3.33331 1.26335 3.92998 0.666687 4.66665 0.666687H20.6666L28.6666 8.66669V30C28.6666 30.7367 28.07 31.3334 27.3333 31.3334Z" fill="#E3E4EA"/>
<path d="M20.6667 0.666687V7.33335C20.6667 8.07002 21.2633 8.66669 22 8.66669H28.6667L20.6667 0.666687Z" fill="#B1B5CD"/>
<path d="M30 23.3334H1.99999C1.26332 23.3334 0.666656 22.7367 0.666656 22V11.3334H31.3333V22C31.3333 22.7367 30.7367 23.3334 30 23.3334Z" fill="#BD0100"/>
<path d="M13.3806 16.4299C13.3806 17.0152 13.208 17.4672 12.8633 17.7852C12.518 18.1045 12.0286 18.2632 11.3933 18.2632H10.996V19.9999H9.5813V14.7645H11.3933C12.0546 14.7645 12.5513 14.9092 12.8826 15.1972C13.2146 15.4865 13.3806 15.8979 13.3806 16.4299ZM10.996 17.1105H11.254C11.4666 17.1105 11.6353 17.0505 11.7606 16.9305C11.886 16.8112 11.9486 16.6465 11.9486 16.4372C11.9486 16.0839 11.7533 15.9072 11.3613 15.9072H10.996V17.1105Z" fill="white"/>
<path d="M18.6587 17.2712C18.6587 18.1452 18.418 18.8179 17.9367 19.2905C17.456 19.7639 16.78 19.9999 15.9087 19.9999H14.2147V14.7645H16.0267C16.8667 14.7645 17.5153 14.9792 17.9727 15.4092C18.43 15.8392 18.6587 16.4592 18.6587 17.2712ZM17.1907 17.3212C17.1907 16.8412 17.096 16.4859 16.906 16.2539C16.7167 16.0219 16.428 15.9065 16.0413 15.9065H15.6293V18.8385H15.9447C16.3747 18.8385 16.6893 18.7132 16.89 18.4639C17.0907 18.2145 17.1907 17.8345 17.1907 17.3212Z" fill="white"/>
<path d="M20.9893 19.9999H19.5966V14.7645H22.6906V15.8992H20.99V16.8985H22.5587V18.0332H20.99V19.9999H20.9893Z" fill="white"/>
</symbol>

<symbol id="icon-ppt" viewBox="0 0 32 32">
<path d="M29.3333 14.3333H2.66666L0.666656 11.6667L3.33332 9H28.6667L31.3333 11.6667L29.3333 14.3333Z" fill="#AA3111"/>
<path d="M27.3333 31.3334H4.66665C3.92998 31.3334 3.33331 30.7367 3.33331 30V2.00002C3.33331 1.26335 3.92998 0.666687 4.66665 0.666687H20.6666L28.6666 8.66669V30C28.6666 30.7367 28.07 31.3334 27.3333 31.3334Z" fill="#E3E4EA"/>
<path d="M20.6667 0.666687V7.33335C20.6667 8.07002 21.2633 8.66669 22 8.66669H28.6667L20.6667 0.666687Z" fill="#B1B5CD"/>
<path d="M30 23.6667H1.99999C1.26332 23.6667 0.666656 23.07 0.666656 22.3334V11.6667H31.3333V22.3334C31.3333 23.07 30.7367 23.6667 30 23.6667Z" fill="#D44519"/>
<path d="M13 16.5905C13 17.1495 12.8182 17.5812 12.4553 17.8849C12.0918 18.1899 11.5766 18.3414 10.9077 18.3414H10.4894V20H9V15H10.9077C11.604 15 12.1269 15.1382 12.4757 15.4132C12.8252 15.6895 13 16.0824 13 16.5905ZM10.4887 17.2405H10.7603C10.9842 17.2405 11.1618 17.1832 11.2937 17.0686C11.4257 16.9547 11.4917 16.7974 11.4917 16.5975C11.4917 16.26 11.286 16.0913 10.8733 16.0913H10.4887V17.2405Z" fill="white"/>
<path d="M18 16.5905C18 17.1495 17.8182 17.5812 17.4553 17.8849C17.0918 18.1899 16.5766 18.3414 15.9077 18.3414H15.4894V20H14V15H15.9077C16.604 15 17.1269 15.1382 17.4757 15.4132C17.8252 15.6895 18 16.0824 18 16.5905ZM15.4887 17.2405H15.7603C15.9842 17.2405 16.1618 17.1832 16.2937 17.0686C16.4257 16.9547 16.4917 16.7974 16.4917 16.5975C16.4917 16.26 16.286 16.0913 15.8733 16.0913H15.4887V17.2405Z" fill="white"/>
<path d="M22.3935 20H20.6107V16.1048H19V15H24V16.1048H22.3935V20Z" fill="white"/>
</symbol>

<symbol id="icon-unknown" viewBox="0 0 32 32">
<path d="M27.3333 31.3334H4.66667C3.93 31.3334 3.33334 30.7367 3.33334 30V2.00002C3.33334 1.26335 3.93 0.666687 4.66667 0.666687H20.6667L28.6667 8.66669V30C28.6667 30.7367 28.07 31.3334 27.3333 31.3334Z" fill="#E3E4EA"/>
<g clip-path="url(#clip0)">
<path d="M8.50001 13.5H23.5" stroke="#575C7B" stroke-linecap="round" stroke-linejoin="round"/>
<path d="M8.50001 16.5H17.5" stroke="#575C7B" stroke-linecap="round" stroke-linejoin="round"/>
<path d="M8.50001 19.5H23.5" stroke="#575C7B" stroke-linecap="round" stroke-linejoin="round"/>
<path d="M8.50001 22.5H17.5" stroke="#575C7B" stroke-linecap="round" stroke-linejoin="round"/>
</g>
<path d="M20.6667 0.666687V7.33335C20.6667 8.07002 21.2633 8.66669 22 8.66669H28.6667L20.6667 0.666687Z" fill="#B1B5CD"/>
<defs>
<clipPath id="clip0">
<rect x="8.00001" y="11" width="16" height="16" fill="white"/>
</clipPath>
</defs>
</symbol>

<symbol id="icon-video" viewBox="0 0 32 32">
<path d="M27.3333 31.3334H4.66668C3.93001 31.3334 3.33334 30.7367 3.33334 30V2.00002C3.33334 1.26335 3.93001 0.666687 4.66668 0.666687H20.6667L28.6667 8.66669V30C28.6667 30.7367 28.07 31.3334 27.3333 31.3334Z" fill="#E3E4EA"/>
<path d="M20.6667 0.666687V7.33335C20.6667 8.07002 21.2633 8.66669 22 8.66669H28.6667L20.6667 0.666687Z" fill="#B1B5CD"/>
<path d="M12 23C11.892 23 11.784 22.974 11.6853 22.9214C11.4687 22.8054 11.3333 22.5794 11.3333 22.3334V11.6667C11.3333 11.4207 11.4687 11.1947 11.6853 11.0787C11.9007 10.962 12.164 10.9747 12.3693 11.112L20.3693 16.4454C20.5553 16.5694 20.6667 16.7774 20.6667 17C20.6667 17.2227 20.5553 17.4307 20.37 17.5547L12.37 22.888C12.258 22.9627 12.1293 23 12 23Z" fill="#575C7B"/>
</symbol>


<symbol id="icon-xls" viewBox="0 0 32 32">
<path d="M29.3333 14H2.66666L0.666656 11.3334L3.33332 8.66669H28.6667L31.3333 11.3334L29.3333 14Z" fill="#0E512B"/>
<path d="M27.3333 31.3334H4.66665C3.92998 31.3334 3.33331 30.7367 3.33331 30V2.00002C3.33331 1.26335 3.92998 0.666687 4.66665 0.666687H20.6666L28.6666 8.66669V30C28.6666 30.7367 28.07 31.3334 27.3333 31.3334Z" fill="#E3E4EA"/>
<path d="M20.6667 0.666687V7.33335C20.6667 8.07002 21.2633 8.66669 22 8.66669H28.6667L20.6667 0.666687Z" fill="#B1B5CD"/>
<path d="M30 23.3334H1.99999C1.26332 23.3334 0.666656 22.7367 0.666656 22V11.3334H31.3333V22C31.3333 22.7367 30.7367 23.3334 30 23.3334Z" fill="#1B7343"/>
<path d="M14.2673 20H12.6307L11.61 18.3634L10.6007 20H9L10.7367 17.3214L9.104 14.7647H10.6727L11.618 16.3834L12.5273 14.7647H14.142L12.484 17.432L14.2673 20Z" fill="white"/>
<path d="M14.8546 20V14.7647H16.2693V18.858H18.2853V20H14.8546Z" fill="white"/>
<path d="M22.546 18.41C22.546 18.7347 22.4633 19.0227 22.2987 19.2747C22.134 19.5267 21.896 19.7227 21.586 19.862C21.276 20.002 20.9113 20.0713 20.494 20.0713C20.1453 20.0713 19.8533 20.0467 19.6167 19.998C19.38 19.9493 19.1347 19.864 18.8793 19.742V18.4813C19.1493 18.62 19.4293 18.728 19.7207 18.8053C20.012 18.8827 20.2793 18.9213 20.5227 18.9213C20.7327 18.9213 20.8867 18.8853 20.9847 18.8127C21.0827 18.74 21.1313 18.646 21.1313 18.5313C21.1313 18.46 21.1113 18.3973 21.0727 18.3433C21.0327 18.29 20.97 18.2353 20.8827 18.1807C20.796 18.126 20.5633 18.0133 20.1867 17.844C19.8453 17.6893 19.5893 17.5387 19.4187 17.3927C19.248 17.2467 19.1213 17.08 19.0393 16.8913C18.9567 16.7027 18.9153 16.48 18.9153 16.222C18.9153 15.7393 19.0907 15.3633 19.442 15.094C19.7933 14.8247 20.2753 14.69 20.8887 14.69C21.4307 14.69 21.9833 14.8153 22.5467 15.0653L22.1133 16.1573C21.624 15.9333 21.2013 15.8213 20.846 15.8213C20.662 15.8213 20.5287 15.8533 20.4447 15.918C20.3607 15.9827 20.3193 16.0627 20.3193 16.1573C20.3193 16.26 20.3727 16.352 20.4787 16.4333C20.5847 16.5147 20.8727 16.6627 21.3433 16.8773C21.7947 17.0807 22.1073 17.298 22.2833 17.5307C22.458 17.764 22.546 18.0567 22.546 18.41Z" fill="white"/>
</symbol>


</defs>
</svg>
