<svg aria-hidden="true" style="position: absolute; width: 0; height: 0; overflow: hidden;" version="1.1" xmlns="http://www.w3.org/2000/svg" xmlns:xlink="http://www.w3.org/1999/xlink">

<defs>

<symbol id="icon-arrow" viewBox="0 0 60 32">
<path  d="M50.266 29.641l-21.516-18.32-21.516 18.32-6.609-5.64 28.125-24 28.125 24-6.609 5.64z"></path>
</symbol>

<symbol id="icon-photo" viewBox="0 0 24 24">
<circle cx="12" cy="12" r="3.2"/><path d="M9 2L7.17 4H4c-1.1 0-2 .9-2 2v12c0 1.1.9 2 2 2h16c1.1 0 2-.9 2-2V6c0-1.1-.9-2-2-2h-3.17L15 2H9zm3 15c-2.76 0-5-2.24-5-5s2.24-5 5-5 5 2.24 5 5-2.24 5-5 5z"/>
<path d="M0 0h24v24H0z" fill="none"/>
</symbol>

<symbol id="icon-contacts" viewBox="0 0 24 24">
<path d="M0 0h24v24H0zm0 0h24v24H0zm0 0h24v24H0z" fill="none"/><path d="M20 0H4v2h16V0zM4 24h16v-2H4v2zM20 4H4c-1.1 0-2 .9-2 2v12c0 1.1.9 2 2 2h16c1.1 0 2-.9 2-2V6c0-1.1-.9-2-2-2zm-8 2.75c1.24 0 2.25 1.01 2.25 2.25s-1.01 2.25-2.25 2.25S9.75 10.24 9.75 9 10.76 6.75 12 6.75zM17 17H7v-1.5c0-1.67 3.33-2.5 5-2.5s5 .83 5 2.5V17z"/>
</symbol>

<symbol id="icon-notifications" viewBox="0 0 24 24">
<path d="M0 0h24v24H0z" fill="none"/><path d="M7.58 4.08L6.15 2.65C3.75 4.48 2.17 7.3 2.03 10.5h2c.15-2.65 1.51-4.97 3.55-6.42zm12.39 6.42h2c-.15-3.2-1.73-6.02-4.12-7.85l-1.42 1.43c2.02 1.45 3.39 3.77 3.54 6.42zM18 11c0-3.07-1.64-5.64-4.5-6.32V4c0-.83-.67-1.5-1.5-1.5s-1.5.67-1.5 1.5v.68C7.63 5.36 6 7.92 6 11v5l-2 2v1h16v-1l-2-2v-5zm-6 11c.14 0 .27-.01.4-.04.65-.14 1.18-.58 1.44-1.18.1-.24.15-.5.15-.78h-4c.01 1.1.9 2 2.01 2z"/>
</symbol>

<symbol id="icon-pin" viewBox="0 0 24 24">
<path d="M0 0h24v24H0z" fill="none"/><path d="M5.5 10.5h2v1h-2zM20 4H4c-1.11 0-1.99.89-1.99 2L2 18c0 1.11.89 2 2 2h16c1.11 0 2-.89 2-2V6c0-1.11-.89-2-2-2zM9 11.5c0 .85-.65 1.5-1.5 1.5h-2v2H4V9h3.5c.85 0 1.5.65 1.5 1.5v1zm3.5 3.5H11V9h1.5v6zm7.5 0h-1.2l-2.55-3.5V15H15V9h1.25l2.5 3.5V9H20v6z"/>
</symbol>

<symbol id="icon-exit" viewBox="0 0 24 24">
<path d="M0 0h24v24H0z" fill="none"/><path d="M10.09 15.59L11.5 17l5-5-5-5-1.41 1.41L12.67 11H3v2h9.67l-2.58 2.59zM19 3H5c-1.11 0-2 .9-2 2v4h2V5h14v14H5v-4H3v4c0 1.1.89 2 2 2h14c1.1 0 2-.9 2-2V5c0-1.1-.9-2-2-2z"/>
</symbol>

<symbol id="icon-reader" viewBox="0 0 24 24">
<path d="M-74 29h48v48h-48V29zM0 0h24v24H0V0zm0 0h24v24H0V0z" fill="none"/><path d="M13 12h7v1.5h-7zm0-2.5h7V11h-7zm0 5h7V16h-7zM21 4H3c-1.1 0-2 .9-2 2v13c0 1.1.9 2 2 2h18c1.1 0 2-.9 2-2V6c0-1.1-.9-2-2-2zm0 15h-9V6h9v13z"/>
</symbol>

<symbol id="icon-lock" viewBox="0 0 24 24">
<path d="M0 0h24v24H0z" fill="none"/><path d="M18 8h-1V6c0-2.76-2.24-5-5-5S7 3.24 7 6v2H6c-1.1 0-2 .9-2 2v10c0 1.1.9 2 2 2h12c1.1 0 2-.9 2-2V10c0-1.1-.9-2-2-2zm-6 9c-1.1 0-2-.9-2-2s.9-2 2-2 2 .9 2 2-.9 2-2 2zm3.1-9H8.9V6c0-1.71 1.39-3.1 3.1-3.1 1.71 0 3.1 1.39 3.1 3.1v2z"/>
</symbol>

<symbol id="icon-arrow-light" viewBox="0 0 64 64">
<path d="M19.4143 61.4141L47.4143 33.4141C48.1953 32.6331 48.1953 31.3671 47.4143 30.5861L19.4143 2.58606L16.5863 5.41406L43.1713 32.0001L16.5862 58.5861L19.4143 61.4141Z" />
</symbol>

<symbol id="icon-trash" viewBox="0 0 24 24">
<path d="M6 19c0 1.1.9 2 2 2h8c1.1 0 2-.9 2-2V7H6v12zM19 4h-3.5l-1-1h-5l-1 1H5v2h14V4z"/>
<path d="M0 0h24v24H0z" fill="none"/>
</symbol>

<symbol id="icon-restoreFromTrash" viewBox="0 0 24 24">
<path d="M19 4h-3.5l-1-1h-5l-1 1H5v2h14zM6 7v12c0 1.1.9 2 2 2h8c1.1 0 2-.9 2-2V7H6zm8 7v4h-4v-4H8l4-4 4 4h-2z"/><path fill="none" d="M0 0h24v24H0z"/>
</symbol>

<symbol id="icon-new" viewBox="0 0 24 24">
<defs><path id="a" d="M0 0h24v24H0V0z"/></defs><clipPath id="b"><use xlink:href="#a" overflow="visible"/></clipPath><path clip-path="url(#b)" d="M20 4H4c-1.11 0-1.99.89-1.99 2L2 18c0 1.11.89 2 2 2h16c1.11 0 2-.89 2-2V6c0-1.11-.89-2-2-2zM8.5 15H7.3l-2.55-3.5V15H3.5V9h1.25l2.5 3.5V9H8.5v6zm5-4.74H11v1.12h2.5v1.26H11v1.11h2.5V15h-4V9h4v1.26zm7 3.74c0 .55-.45 1-1 1h-4c-.55 0-1-.45-1-1V9h1.25v4.51h1.13V9.99h1.25v3.51h1.12V9h1.25v5z"/>
</symbol>

<symbol id="icon-back" viewBox="0 0 16 16">
<path xmlns="http://www.w3.org/2000/svg" d="M16 6.99999V8.99999H3.98955L9.49477 14.5052L8.08057 15.9194L0.161133 7.99999L8.08057 0.0805664L9.49477 1.49478L3.98955 6.99999H16Z" />
</symbol>

<symbol id="icon-start" viewBox="0 0 22 20">
<path d="M9 20V11.6471H13V20H19V9.52941H22L11 0L0 9.52941H3V20H9Z" />
</symbol>

<symbol id="icon-education" viewBox="0 0 20 20">
<path fill-rule="evenodd" clip-rule="evenodd" d="M17.3333 0H2.66667C1.95942 0 1.28115 0.280952 0.781049 0.781049C0.280952 1.28115 0 1.95942 0 2.66667V17.3333C0 18.0406 0.280952 18.7189 0.781049 19.219C1.28115 19.719 1.95942 20 2.66667 20H17.3333C18.0406 20 18.7189 19.719 19.219 19.219C19.719 18.7189 20 18.0406 20 17.3333V2.66667C20 1.95942 19.719 1.28115 19.219 0.781049C18.7189 0.280952 18.0406 0 17.3333 0ZM2.66667 1.33333H17.3333C17.687 1.33333 18.0261 1.47381 18.2761 1.72386C18.5262 1.97391 18.6667 2.31304 18.6667 2.66667V12H13.3333V14.6667H6.66667V12H1.33333V2.66667C1.33333 2.31304 1.47381 1.97391 1.72386 1.72386C1.97391 1.47381 2.31304 1.33333 2.66667 1.33333ZM16 4H4V5.33333H16V4ZM4 8H16V9.33333H4V8Z" />
</symbol>

<symbol id="icon-teaching" viewBox="0 0 20 22">
<path fill-rule="evenodd" clip-rule="evenodd" d="M3 6C4.65685 6 6 4.65685 6 3C6 1.34315 4.65685 0 3 0C1.34315 0 0 1.34315 0 3C0 4.65685 1.34315 6 3 6ZM13 9V7H2C1.46957 7 0.960859 7.21071 0.585786 7.58579C0.210714 7.96086 0 8.46957 0 9V22H2V16H4V22H6V9H13ZM8 2H19C19.2652 2 19.5196 2.10536 19.7071 2.29289C19.8946 2.48043 20 2.73478 20 3V15C20 15.2652 19.8946 15.5196 19.7071 15.7071C19.5196 15.8946 19.2652 16 19 16H14.516L15.919 20.606C16.0235 20.8497 16.0268 21.125 15.9284 21.3712C15.8299 21.6174 15.6377 21.8145 15.394 21.919C15.2697 21.973 15.1355 22.0006 15 22C14.8043 22 14.613 21.9426 14.4496 21.8348C14.2863 21.7271 14.1581 21.5738 14.081 21.394L12.341 16H8V14H18V4H8V2Z" />
</symbol>

<symbol id="icon-library" viewBox="0 0 20 21">
<path fill-rule="evenodd" clip-rule="evenodd" d="M15.7359 0.765665L19.9719 18.2597C20.1019 18.7967 19.7719 19.3367 19.2349 19.4677L16.3469 20.4087C16.2699 20.4267 16.1909 20.4367 16.1119 20.4367C15.9299 20.4367 15.7499 20.3867 15.5899 20.2897C15.3639 20.1517 15.2009 19.9297 15.1389 19.6717L11 2.57349V19.4367C11 19.9897 10.552 20.4367 10 20.4367H7C6.448 20.4367 6 19.9897 6 19.4367V1.43668C6 0.883676 6.448 0.436676 7 0.436676H10C10.552 0.436676 11 0.883676 11 1.43668V1.46024C11.0073 1.4469 11.015 1.43371 11.0229 1.42067C11.1609 1.19467 11.3829 1.03167 11.6409 0.969665L14.5289 0.0296652C15.0609 -0.104335 15.6059 0.228665 15.7359 0.765665ZM4 0.436676H1C0.448 0.436676 0 0.883676 0 1.43668V19.4367C0 19.9897 0.448 20.4367 1 20.4367H4C4.552 20.4367 5 19.9897 5 19.4367V1.43668C5 0.883676 4.552 0.436676 4 0.436676Z" />
</symbol>

<symbol id="icon-library" viewBox="0 0 32 32">
<path  d="M25.778 2.667h-19.555c-0.943 0-1.847 0.375-2.514 1.041s-1.041 1.571-1.041 2.514v19.555c0 0.943 0.375 1.847 1.041 2.514s1.571 1.041 2.514 1.041h19.555c0.943 0 1.847-0.375 2.514-1.041s1.041-1.571 1.041-2.514v-19.555c0-0.943-0.375-1.847-1.041-2.514s-1.571-1.041-2.514-1.041zM6.222 4.444h19.555c0.472 0 0.924 0.187 1.257 0.521s0.521 0.786 0.521 1.257v12.444h-7.111v3.556h-8.889v-3.556h-7.111v-12.444c0-0.471 0.187-0.924 0.521-1.257s0.786-0.521 1.257-0.521z"></path>
<path d="M24 8h-16v1.778h16v-1.778z"></path>
<path d="M24 13.333h-16v1.778h16v-1.778z"></path>
</symbol>

<symbol id="icon-messages" viewBox="0 0 20 20">
<path d="M18 0H2C0.9 0 0.00999999 0.9 0.00999999 2L0 20L4 16H18C19.1 16 20 15.1 20 14V2C20 0.9 19.1 0 18 0ZM4 7H16V9H4V7ZM12 12H4V10H12V12ZM16 6H4V4H16V6Z" />
</symbol>

<symbol id="icon-forum" viewBox="0 0 24 22">
<path fill-rule="evenodd" clip-rule="evenodd" d="M16.484 0.12483C16.168 -0.0501698 15.778 -0.0411699 15.469 0.15183L7.713 4.99983H4C1.794 4.99983 0 6.79383 0 8.99983C0 11.2058 1.794 12.9998 4 12.9998H7.713L15.47 17.8478C15.632 17.9488 15.815 17.9998 16 17.9998C16.167 17.9998 16.334 17.9578 16.484 17.8748C16.803 17.6978 17 17.3628 17 16.9998V0.99983C17 0.63683 16.803 0.30183 16.484 0.12483ZM24 7.99982H20V9.99982H24V7.99982ZM18.4285 4.13419L21.8937 2.13409L22.8935 3.86629L19.4283 5.86639L18.4285 4.13419ZM19.4278 12.1332L18.428 13.8654L21.8932 15.8655L22.893 14.1333L19.4278 12.1332ZM4.18994 14.9998H7.70194L9.86094 19.7368C10.2219 20.5478 9.85894 21.4978 9.04794 21.8598C8.23694 22.2208 7.28694 21.8578 6.92494 21.0468L4.18994 14.9998Z" />
</symbol>

<symbol id="icon-calendar" viewBox="0 0 18 22">
<path fill-rule="evenodd" clip-rule="evenodd" d="M16 2H15V0H13V2H5V0H3V2H2C0.89 2 0.01 2.9 0.01 4L0 20C0 21.1 0.89 22 2 22H16C17.1 22 18 21.1 18 20V4C18 2.9 17.1 2 16 2ZM16 20H2V9H16V20ZM4 13V11H6V13H4ZM8 11H10V13H8V11ZM14 13V11H12V13H14Z" />
</symbol>

<symbol id="icon-more" viewBox="0 0 32 32">
<path d="M8 13.333c-1.467 0-2.667 1.2-2.667 2.667s1.2 2.667 2.667 2.667c1.467 0 2.667-1.2 2.667-2.667s-1.2-2.667-2.667-2.667zM24 13.333c-1.467 0-2.667 1.2-2.667 2.667s1.2 2.667 2.667 2.667c1.467 0 2.667-1.2 2.667-2.667s-1.2-2.667-2.667-2.667zM16 13.333c-1.467 0-2.667 1.2-2.667 2.667s1.2 2.667 2.667 2.667c1.467 0 2.667-1.2 2.667-2.667s-1.2-2.667-2.667-2.667z"></path>
</symbol>

<symbol id="icon-report" viewBox="0 0 32 32">
<path d="M27.6316 32.0007H4.36842C3.61237 32.0007 3 31.3781 3 30.6094V1.39198C3 0.62328 3.61237 0.000671387 4.36842 0.000671387H20.7895L29 8.00067V30.6094C29 31.3781 28.3876 32.0007 27.6316 32.0007Z" fill="#E6E6E6"/>
<path d="M21 0.000671387V6.66734C21 7.40401 21.5967 8.00067 22.3333 8.00067H29L21 0.000671387Z" fill="#B3B3B3"/>
<path d="M17 22.0007H15C14.448 22.0007 14 21.6927 14 21.3132V11.6882C14 11.3087 14.448 11.0007 15 11.0007H17C17.552 11.0007 18 11.3087 18 11.6882V21.3132C18 21.6927 17.552 22.0007 17 22.0007Z" fill="#43A6DD"/>
<path d="M11 22.0007H9C8.448 22.0007 8 21.6273 8 21.1673V17.834C8 17.374 8.448 17.0007 9 17.0007H11C11.552 17.0007 12 17.374 12 17.834V21.1673C12 21.6273 11.552 22.0007 11 22.0007Z" fill="#43A6DD"/>
<path d="M23 22.0007H21C20.448 22.0007 20 21.6871 20 21.3007V15.7007C20 15.3143 20.448 15.0007 21 15.0007H23C23.552 15.0007 24 15.3143 24 15.7007V21.3007C24 21.6871 23.552 22.0007 23 22.0007Z" fill="#43A6DD"/>
</symbol>

<symbol id="icon-reply" viewBox="0 0 16 16">
<path xmlns="http://www.w3.org/2000/svg" d="M6.66667 5.99992V3.33325L2 7.99992L6.66667 12.6666V9.93325C10 9.93325 12.3333 10.9999 14 13.3333C13.3333 9.99992 11.3333 6.66659 6.66667 5.99992Z" fill="#0D51F8"/>
</symbol>

<symbol id="icon-add" viewBox="0 0 14 14">
<path xmlns="http://www.w3.org/2000/svg" d="M13 6H8V1C8 0.4 7.6 0 7 0C6.4 0 6 0.4 6 1V6H1C0.4 6 0 6.4 0 7C0 7.6 0.4 8 1 8H6V13C6 13.6 6.4 14 7 14C7.6 14 8 13.6 8 13V8H13C13.6 8 14 7.6 14 7C14 6.4 13.6 6 13 6Z" fill="#0D51F8"/>
</symbol>

<symbol id="icon-hand" viewBox="0 0 32 32">
<path fill="#fac036" style="fill: var(--color1, #fac036)" d="M23.31 14.807c-0.19-5.467-0.387-9.877-0.453-10.86s-0.587-1.697-1.83-1.697c-1.242 0-1.635 0.915-1.635 1.96s0 7.385 0 7.385-0.207 0.5-0.58-0.21c-0.242-0.465-0.938-0.785-1.645-0.63-0.615 0.137-1.293 0.473-1.435 1.435-0.125 0.842-0.547 0.063-0.945-0.315-0.248-0.235-0.912-0.59-1.54-0.49-0.807 0.13-1.54 0.56-1.68 1.4s-0.595 0.14-0.84-0.21c-0.245-0.35-0.98-0.63-1.68-0.385s-1.47 0.735-1.505 1.89c-0.035 1.155-0.595 6.54 0.42 9.48s3.19 6.19 8.473 6.19 8.465-5.212 8.185-8.535-1.195-3.080-1.31-6.407z"></path>
<path fill="#e48c15" style="fill: var(--color2, #e48c15)" d="M21.872 18.060c0 0-0.082-0.032-0.23-0.102-0.137-0.065-0.337-0.163-0.595-0.285-0.253-0.122-0.552-0.267-0.91-0.402-0.358-0.133-0.777-0.24-1.26-0.31-0.473-0.075-1.010-0.1-1.58-0.108-0.573-0.008-1.18 0.005-1.803 0.032-0.31 0.015-0.627 0.035-0.932 0.073-0.075 0.010-0.152 0.017-0.217 0.032l-0.053 0.010h-0.008c0.008-0.003-0.025 0.005 0.015-0.003l-0.015 0.005-0.030 0.008c-0.035 0.010-0.095 0.020-0.107 0.030-0.035 0.012-0.082 0.032-0.133 0.058-0.045 0.027-0.088 0.055-0.125 0.085-0.15 0.128-0.235 0.315-0.252 0.555-0.018 0.238 0.037 0.527 0.14 0.77 0.1 0.233 0.268 0.453 0.473 0.622 0.21 0.168 0.455 0.297 0.723 0.378 0.135 0.038 0.27 0.067 0.412 0.082 0.070 0.008 0.14 0.017 0.21 0.017 0.068 0.003 0.14 0.005 0.227 0.005 0.328 0 0.652 0.003 0.97 0.003 0.32 0.005 0.672 0.003 1.050 0.108 0.405 0.12 0.665 0.313 0.927 0.5 0.258 0.192 0.49 0.405 0.692 0.648 0.2 0.242 0.383 0.515 0.473 0.85 0.023 0.082 0.040 0.17 0.045 0.26l0.003 0.032 0.003 0.045v0.14c-0.005 0.075-0.012 0.16-0.020 0.235-0.012 0.070-0.025 0.14-0.038 0.207-0.060 0.27-0.165 0.508-0.285 0.712-0.238 0.415-0.543 0.698-0.808 0.89-0.267 0.195-0.505 0.293-0.663 0.358-0.163 0.052-0.25 0.080-0.25 0.080-0.108 0.035-0.223-0.025-0.258-0.133-0.027-0.087 0.005-0.18 0.075-0.23l0.015-0.010c0 0 0.065-0.047 0.188-0.133 0.117-0.093 0.29-0.223 0.475-0.418 0.183-0.195 0.383-0.45 0.53-0.77 0.073-0.16 0.133-0.335 0.168-0.52 0.008-0.045 0.012-0.093 0.020-0.14 0.003-0.040 0.005-0.082 0.008-0.125l-0.003-0.093v-0.060c0-0.020 0 0.020 0 0.015v-0.003l-0.003-0.012c-0.003-0.035-0.012-0.073-0.023-0.11-0.093-0.323-0.448-0.715-0.87-1.018-0.21-0.148-0.457-0.302-0.645-0.345-0.215-0.058-0.497-0.058-0.813-0.055-0.317 0.005-0.642 0.010-0.97 0.015-0.342 0.005-0.745-0.027-1.115-0.135-0.375-0.108-0.74-0.29-1.058-0.545-0.318-0.258-0.58-0.59-0.75-0.98-0.16-0.383-0.248-0.775-0.22-1.215 0.025-0.43 0.225-0.913 0.598-1.215 0.090-0.075 0.188-0.14 0.287-0.195 0.1-0.050 0.205-0.098 0.328-0.133 0.065-0.023 0.088-0.023 0.133-0.035l0.030-0.008 0.055-0.012 0.070-0.012c0.095-0.017 0.182-0.027 0.27-0.038 0.348-0.040 0.675-0.057 1-0.072 0.65-0.027 1.272-0.027 1.868-0.010 0.595 0.020 1.165 0.057 1.698 0.148 0.525 0.085 1.012 0.218 1.427 0.378 0.418 0.157 0.755 0.358 1.010 0.545 0.253 0.188 0.43 0.367 0.545 0.49 0.105 0.125 0.157 0.195 0.157 0.195 0.078 0.11 0.052 0.26-0.058 0.337-0.060 0.055-0.148 0.063-0.22 0.035z"></path>
<path fill="#e48c15" style="fill: var(--color2, #e48c15)" d="M19.47 11.637l0.733 4.727c0.045 0.293-0.155 0.567-0.448 0.613s-0.567-0.155-0.613-0.448c-0.003-0.017-0.005-0.038-0.005-0.058l-0.238-4.777c-0.008-0.158 0.113-0.293 0.27-0.3 0.15-0.008 0.275 0.1 0.3 0.242z"></path>
<path fill="#e48c15" style="fill: var(--color2, #e48c15)" d="M15.815 12.447l0.572 3.502c0.047 0.293-0.15 0.57-0.443 0.617s-0.57-0.15-0.617-0.442c-0.002-0.023-0.005-0.047-0.008-0.070l-0.115-3.547c-0.005-0.17 0.127-0.31 0.297-0.318 0.158-0.005 0.29 0.107 0.313 0.258z"></path>
<path fill="#e48c15" style="fill: var(--color2, #e48c15)" d="M11.59 13.168c0 0 0.027 0.39 0.070 0.977 0.023 0.293 0.047 0.633 0.075 0.998 0.030 0.363 0.063 0.75 0.113 1.127 0.023 0.19 0.053 0.375 0.085 0.555 0.012 0.093 0.037 0.175 0.055 0.26 0.018 0.087 0.040 0.168 0.065 0.242 0.043 0.157 0.102 0.288 0.16 0.398 0.035 0.045 0.060 0.102 0.092 0.137 0.035 0.027 0.060 0.067 0.090 0.090 0.033 0.015 0.060 0.035 0.085 0.052 0.033 0.008 0.063 0.017 0.090 0.027 0.063 0.015 0.125 0.015 0.178 0.023 0.123-0.010 0.19-0.010 0.19-0.010h0.092c0.295-0.003 0.537 0.235 0.537 0.532 0.002 0.295-0.235 0.538-0.533 0.538-0.005 0-0.015 0-0.020 0 0 0-0.127-0.005-0.348-0.010-0.115-0.020-0.262-0.040-0.425-0.098-0.082-0.035-0.17-0.075-0.26-0.12-0.082-0.058-0.168-0.125-0.252-0.195-0.078-0.075-0.143-0.165-0.213-0.253-0.065-0.090-0.105-0.185-0.158-0.282-0.085-0.192-0.15-0.398-0.19-0.598-0.025-0.102-0.043-0.203-0.055-0.302s-0.033-0.205-0.040-0.305c-0.018-0.203-0.037-0.407-0.043-0.608-0.020-0.402-0.020-0.797-0.023-1.168 0.002-0.367 0.005-0.713 0.005-1.008 0.005-0.588 0.008-0.98 0.008-0.98 0-0.158 0.13-0.283 0.285-0.283 0.15 0 0.27 0.115 0.283 0.26z"></path>
<path fill="#e48c15" style="fill: var(--color2, #e48c15)" d="M11.765 15.465c0 0 0.002 0.040 0.005 0.117 0.005 0.075 0.008 0.19 0.008 0.342-0.002 0.3-0.005 0.728-0.105 1.255-0.053 0.262-0.123 0.552-0.26 0.86-0.14 0.3-0.365 0.633-0.723 0.86-0.357 0.23-0.785 0.297-1.152 0.293-0.438-0.015-0.83-0.175-1.158-0.415-0.325-0.242-0.57-0.555-0.745-0.872-0.178-0.32-0.303-0.65-0.385-0.97-0.165-0.642-0.213-1.24-0.23-1.748-0.010-0.508 0.018-0.928 0.035-1.22 0.027-0.29 0.043-0.457 0.043-0.457 0.015-0.148 0.145-0.255 0.292-0.242 0.138 0.012 0.24 0.127 0.242 0.262v0.010c0 0 0.003 0.162 0.005 0.445 0.005 0.283 0.015 0.685 0.065 1.16 0.045 0.473 0.125 1.025 0.3 1.568 0.090 0.27 0.197 0.538 0.345 0.777 0.143 0.24 0.325 0.448 0.533 0.593 0.205 0.142 0.455 0.223 0.665 0.22 0.275 0 0.502-0.047 0.665-0.155 0.165-0.105 0.297-0.28 0.393-0.49 0.102-0.205 0.17-0.435 0.22-0.652 0.095-0.44 0.133-0.835 0.152-1.107 0.018-0.28 0.027-0.443 0.027-0.443 0.012-0.21 0.195-0.37 0.405-0.357 0.195 0.015 0.348 0.175 0.357 0.367z"></path>
</symbol>

<symbol id="icon-attachment" viewBox="0 0 16 16">
<path xmlns="http://www.w3.org/2000/svg" d="M6.5 5.5V9.5C6.5 10.605 7.395 11.5 8.5 11.5C9.605 11.5 10.5 10.605 10.5 9.5V4.5C10.5 2.291 8.709 0.5 6.5 0.5C4.291 0.5 2.5 2.291 2.5 4.5V10C2.5 13.038 4.962 15.5 8 15.5C11.038 15.5 13.5 13.038 13.5 10V4.5" stroke="#4F4F4F" stroke-miterlimit="10" stroke-linecap="round" stroke-linejoin="round"/>
</symbol>

<symbol id="icon-language" viewBox="0 0 24 24">
<path d="M0 0h24v24H0z" fill="none"/><path d="M11.99 2C6.47 2 2 6.48 2 12s4.47 10 9.99 10C17.52 22 22 17.52 22 12S17.52 2 11.99 2zm6.93 6h-2.95c-.32-1.25-.78-2.45-1.38-3.56 1.84.63 3.37 1.91 4.33 3.56zM12 4.04c.83 1.2 1.48 2.53 1.91 3.96h-3.82c.43-1.43 1.08-2.76 1.91-3.96zM4.26 14C4.1 13.36 4 12.69 4 12s.1-1.36.26-2h3.38c-.08.66-.14 1.32-.14 2 0 .68.06 1.34.14 2H4.26zm.82 2h2.95c.32 1.25.78 2.45 1.38 3.56-1.84-.63-3.37-1.9-4.33-3.56zm2.95-8H5.08c.96-1.66 2.49-2.93 4.33-3.56C8.81 5.55 8.35 6.75 8.03 8zM12 19.96c-.83-1.2-1.48-2.53-1.91-3.96h3.82c-.43 1.43-1.08 2.76-1.91 3.96zM14.34 14H9.66c-.09-.66-.16-1.32-.16-2 0-.68.07-1.35.16-2h4.68c.09.65.16 1.32.16 2 0 .68-.07 1.34-.16 2zm.25 5.56c.6-1.11 1.06-2.31 1.38-3.56h2.95c-.96 1.65-2.49 2.93-4.33 3.56zM16.36 14c.08-.66.14-1.32.14-2 0-.68-.06-1.34-.14-2h3.38c.16.64.26 1.31.26 2s-.1 1.36-.26 2h-3.38z"/>
</symbol>

<symbol id="icon-whiteStar" viewBox="0 0 32 32">
<path d="M19.5278 12.1644L19.6447 12.5H20H30.5501L21.9118 19.2623L21.6364 19.4778L21.7445 19.8105L25.113 30.179L16.2939 23.7715L16 23.5579L15.7061 23.7715L6.88699 30.179L10.2555 19.8105L10.3636 19.4778L10.0882 19.2623L1.44986 12.5H12H12.3553L12.4722 12.1644L16 2.03252L19.5278 12.1644Z" fill="white" stroke="#949287"/>
</symbol>

<symbol id="icon-yellowStar" viewBox="0 0 32 32">
<path d="M19.5278 12.1644L19.6447 12.5H20H30.5501L21.9118 19.2623L21.6364 19.4778L21.7445 19.8105L25.113 30.179L16.2939 23.7715L16 23.5579L15.7061 23.7715L6.88699 30.179L10.2555 19.8105L10.3636 19.4778L10.0882 19.2623L1.44986 12.5H12H12.3553L12.4722 12.1644L16 2.03252L19.5278 12.1644Z" fill="#FAD84B" stroke="#FAD84B"/>
</symbol>

<symbol id="icon-halfStar" viewBox="0 0 32 32">
<path d="M20 12L16 0.511963L12 12H0L9.78 19.656L5.936 31.488L16 24.176L26.064 31.488L22.22 19.656L32 12H20Z" fill="#FAD84B"/>
<path fill-rule="evenodd" clip-rule="evenodd" d="M18 25.6291V6.25598L20 12H32L22.22 19.656L26.064 31.488L18 25.6291Z" fill="#E2E1DF"/>
</symbol>

<symbol id="icon-download" viewBox="0 0 14 17">
<path fill-rule="evenodd" clip-rule="evenodd" d="M10 6H14L7 13L0 6H4V0H10V6ZM0 17V15H14V17H0Z" />
</symbol>

</defs>


</svg>
