<svg aria-hidden="true" style="position: absolute; width: 0; height: 0; overflow: hidden;" version="1.1" xmlns="http://www.w3.org/2000/svg" xmlns:xlink="http://www.w3.org/1999/xlink">
<defs>

<symbol id="icon-certificate" viewBox="0 0 32 32">
<path fill="#e6e6e6" style="fill: var(--color1, #e6e6e6)" d="M24 0.666h-20c1.841 0 3.333 1.493 3.333 3.333v24c0 1.841 1.493 3.333 3.333 3.333h16.667v-27.333c0-1.841-1.493-3.333-3.333-3.333z"></path>
<path fill="#b3b3b3" style="fill: var(--color2, #b3b3b3)" d="M22.667 7.999h-10.667c-0.368 0-0.667-0.299-0.667-0.667s0.299-0.667 0.667-0.667h10.667c0.368 0 0.667 0.299 0.667 0.667s-0.299 0.667-0.667 0.667z"></path>
<path fill="#b3b3b3" style="fill: var(--color2, #b3b3b3)" d="M22.667 13.333h-10.667c-0.368 0-0.667-0.299-0.667-0.667s0.299-0.667 0.667-0.667h10.667c0.368 0 0.667 0.299 0.667 0.667s-0.299 0.667-0.667 0.667z"></path>
<path fill="#b3b3b3" style="fill: var(--color2, #b3b3b3)" d="M22.667 18.665h-10.667c-0.368 0-0.667-0.299-0.667-0.667s0.299-0.667 0.667-0.667h10.667c0.368 0 0.667 0.299 0.667 0.667s-0.299 0.667-0.667 0.667z"></path>
<path fill="#b3b3b3" style="fill: var(--color2, #b3b3b3)" d="M16.667 23.999h-4.667c-0.368 0-0.667-0.299-0.667-0.667s0.299-0.667 0.667-0.667h4.667c0.368 0 0.667 0.299 0.667 0.667s-0.299 0.667-0.667 0.667z"></path>
<path fill="#b3b3b3" style="fill: var(--color2, #b3b3b3)" d="M4 0.666c-1.841 0-3.333 1.493-3.333 3.333h6.667c0-1.841-1.493-3.333-3.333-3.333z"></path>
<path fill="#b3b3b3" style="fill: var(--color2, #b3b3b3)" d="M14 28c0 1.841-1.493 3.333-3.333 3.333h17.333c1.841 0 3.333-1.493 3.333-3.333h-17.333z"></path>
<path fill="#e86c60" style="fill: var(--color3, #e86c60)" d="M27.333 15.332h-5.333v8.667l2.667-1.333 2.667 1.333v-8.667z"></path>
<path fill="#efd358" style="fill: var(--color4, #efd358)" d="M24.667 16.666c-3.308 0-6-2.692-6-6s2.692-6 6-6c3.308 0 6 2.692 6 6s-2.692 6-6 6z"></path>
<path fill="#c19a3a" style="fill: var(--color5, #c19a3a)" d="M24.667 6c-2.573 0-4.667 2.093-4.667 4.667s2.093 4.667 4.667 4.667c2.573 0 4.667-2.093 4.667-4.667s-2.093-4.667-4.667-4.667zM24.667 14c-1.838 0-3.333-1.495-3.333-3.333s1.495-3.333 3.333-3.333c1.838 0 3.333 1.495 3.333 3.333s-1.495 3.333-3.333 3.333z"></path>
</symbol>

<symbol id="icon-certificate2" viewBox="0 0 16 16">
<path d="M8 0C5.2 0 3 2.2 3 5C3 7.8 5.2 10 8 10C10.8 10 13 7.8 13 5C13 2.2 10.8 0 8 0Z" />
<path d="M8 12C6.5 12 5.1 11.5 4 10.7V16L8 14L12 16V10.7C10.9 11.5 9.5 12 8 12Z" />
</symbol>

<symbol id="icon-education" viewBox="0 0 24 24">
<path d="M5 13.18V17.18L12 21L19 17.18V13.18L12 17L5 13.18ZM12 3L1 9L12 15L21 10.09V17H23V9L12 3Z" fill="#A7ABBB"/>
</symbol>

<symbol id="icon-primary" viewBox="0 0 40 40" fill="#FAD84B">
<circle cx="20" cy="20" r="20" fill="#FAD84B"/>
<rect width="40" height="40" rx="20" fill="url(#paint0_linear)"/>
<path d="M11 27.75H23V25.6667H11V27.75ZM11 22.5417H29V20.4583H11V22.5417ZM11 15.25V17.3333H29V15.25H11Z" fill="#232320"/>
<defs>
<linearGradient id="paint0_linear" x1="20" y1="0" x2="20" y2="40" gradientUnits="userSpaceOnUse">
<stop stop-color="#FFE36D"/>
<stop offset="1" stop-color="#FAD84B" stop-opacity="0"/>
</linearGradient>
</defs>
</symbol>





</defs>
</svg>
