<?xml version="1.0" standalone="no"?>
<!DOCTYPE svg PUBLIC "-//W3C//DTD SVG 20010904//EN"
 "http://www.w3.org/TR/2001/REC-SVG-20010904/DTD/svg10.dtd">
<svg version="1.0" xmlns="http://www.w3.org/2000/svg"
 width="1600.000000pt" height="1600.000000pt" viewBox="0 0 1600.000000 1600.000000"
 preserveAspectRatio="xMidYMid meet">
<metadata>
Created by potrace 1.11, written by Peter Selinger 2001-2013
</metadata>
<g transform="translate(0.000000,1600.000000) scale(0.100000,-0.100000)"
fill="#000000" stroke="none">
<path d="M1119 11824 c-7 -8 -7 -14 -1 -14 11 0 11 -18 0 -35 -4 -6 -3 -17 2
-25 5 -8 5 -21 0 -31 -5 -9 -6 -19 -3 -23 11 -11 11 -56 1 -56 -5 0 -6 -6 -2
-12 12 -19 12 -48 0 -48 -7 0 -7 -3 -1 -8 12 -8 14 -82 2 -82 -4 0 -5 -6 -1
-12 12 -19 12 -48 0 -48 -7 0 -7 -3 -1 -8 6 -4 10 -14 10 -22 0 -8 -4 -18 -10
-22 -6 -5 -6 -8 2 -8 12 0 12 -17 0 -37 -5 -7 -4 -13 2 -13 9 0 9 -7 1 -45 -1
-5 -1 -12 0 -15 6 -15 4 -100 -3 -100 -4 0 -5 -6 0 -12 11 -18 10 -42 -2 -50
-6 -5 -6 -8 1 -8 12 0 11 -41 -1 -59 -3 -6 -2 -11 3 -11 10 0 9 -36 -1 -46 -3
-4 -2 -15 3 -25 7 -12 7 -20 0 -24 -7 -4 -7 -12 0 -25 7 -13 7 -21 0 -25 -7
-4 -6 -14 2 -28 6 -12 10 -23 9 -25 -2 -2 0 -6 3 -10 3 -3 6 0 6 7 0 8 5 9 19
1 13 -6 22 -7 26 0 3 5 11 7 18 4 24 -9 87 -10 87 -2 0 5 5 6 11 2 14 -8 197
-9 205 -1 3 3 11 4 18 1 23 -9 86 -10 86 -2 0 5 5 6 11 2 14 -8 197 -9 205 -1
3 3 11 4 18 1 23 -9 86 -10 86 -2 0 5 5 6 11 2 14 -8 197 -9 205 -1 3 3 11 4
18 1 23 -9 86 -10 86 -2 0 5 5 6 11 2 14 -8 197 -9 205 -1 3 3 12 3 20 0 8 -3
40 -6 71 -7 l58 -1 0 -60 c0 -33 4 -63 10 -67 6 -5 7 -8 0 -8 -11 0 -13 -199
-2 -217 4 -7 4 -14 0 -16 -10 -6 -9 -209 0 -225 4 -6 4 -13 0 -15 -10 -6 -9
-209 0 -225 4 -6 4 -13 0 -15 -10 -6 -9 -209 0 -225 4 -6 4 -13 0 -15 -10 -6
-9 -209 0 -225 4 -6 4 -13 0 -15 -10 -6 -9 -209 0 -225 4 -6 4 -13 0 -15 -10
-6 -9 -209 0 -225 4 -6 4 -13 0 -15 -10 -6 -9 -209 0 -225 4 -6 4 -13 0 -15
-10 -6 -9 -209 0 -225 4 -6 4 -13 0 -15 -10 -6 -9 -269 1 -285 4 -7 3 -12 -1
-12 -11 0 -10 -131 1 -148 4 -7 3 -12 -1 -12 -11 0 -10 -131 1 -148 4 -7 3
-12 -1 -12 -11 0 -10 -131 1 -148 4 -7 3 -12 -1 -12 -11 0 -10 -131 1 -148 4
-7 3 -12 -1 -12 -11 0 -10 -131 1 -148 4 -7 3 -12 -1 -12 -11 0 -10 -131 1
-148 4 -7 3 -12 -1 -12 -11 0 -10 -131 1 -148 4 -7 3 -12 -1 -12 -11 0 -10
-131 1 -148 4 -7 3 -12 -1 -12 -11 0 -10 -131 1 -148 4 -7 3 -12 -1 -12 -11 0
-10 -131 1 -148 4 -7 3 -12 -1 -12 -11 0 -10 -131 1 -148 4 -7 3 -12 -1 -12
-11 0 -10 -131 1 -148 4 -7 3 -12 -1 -12 -11 0 -10 -131 1 -148 4 -7 3 -12 -1
-12 -11 0 -10 -131 1 -148 4 -7 3 -12 -1 -12 -11 0 -10 -131 1 -148 4 -7 3
-12 -2 -12 -10 0 -8 -92 2 -109 4 -6 4 -11 -1 -11 -10 0 -9 -192 1 -208 3 -6
3 -13 -1 -15 -10 -6 -9 -209 0 -225 4 -6 4 -13 0 -15 -10 -6 -9 -209 0 -225 4
-6 4 -13 0 -15 -10 -6 -9 -209 0 -225 4 -6 4 -13 0 -15 -10 -6 -9 -209 0 -225
4 -6 4 -13 0 -15 -10 -6 -9 -209 0 -224 4 -6 3 -13 0 -17 -4 -4 -7 -30 -8 -57
0 -39 4 -53 18 -60 11 -7 17 -6 17 2 0 8 4 8 15 -1 12 -10 15 -10 15 1 0 9 3
10 8 4 8 -12 82 -14 82 -2 0 4 5 5 11 1 16 -10 129 -11 129 -1 0 5 6 5 12 1
19 -12 48 -12 48 -1 0 5 7 4 15 -3 12 -10 15 -10 15 1 0 9 3 10 8 4 8 -12 42
-16 42 -6 0 4 10 7 23 5 12 -1 22 -3 22 -4 0 -1 12 -3 28 -4 15 -1 27 2 27 7
0 4 5 5 12 1 16 -10 68 -11 68 -1 0 5 6 5 12 1 19 -12 48 -12 48 -1 0 5 7 4
15 -3 12 -10 15 -10 15 1 0 9 3 10 8 4 9 -13 82 -14 82 -2 0 5 7 4 15 -3 12
-10 15 -10 15 1 0 9 3 10 8 4 4 -5 16 -10 27 -10 11 0 23 5 27 10 5 7 8 7 8 0
0 -6 28 -10 64 -10 35 0 62 2 60 4 -2 2 1 10 7 18 8 9 8 13 1 13 -6 0 -9 6 -6
13 9 24 10 88 2 93 -5 3 -5 11 1 18 5 6 6 18 2 25 -5 7 -5 28 -1 47 5 20 4 34
-2 34 -5 0 -6 6 -2 12 7 11 10 53 4 61 -6 8 -7 37 -1 37 8 0 7 47 -2 56 -3 3
-2 17 3 30 7 16 6 24 -1 24 -8 0 -7 5 1 15 8 10 9 15 2 15 -6 0 -9 6 -6 13 9
24 11 88 2 93 -4 3 -3 14 2 25 8 13 7 19 0 19 -6 0 -8 5 -4 12 7 11 10 53 4
61 -6 8 -7 37 -1 37 9 0 8 37 -1 46 -4 3 -3 16 1 28 6 19 7 41 1 49 -6 8 -7
37 -1 37 4 0 8 7 8 15 0 8 -5 15 -10 15 -5 0 -4 7 3 15 8 10 9 15 2 15 -6 0
-9 6 -6 13 9 24 10 88 2 93 -5 3 -5 11 1 18 5 6 6 18 2 25 -5 7 -5 28 -1 47 5
20 4 34 -2 34 -5 0 -6 6 -2 12 7 11 10 53 4 61 -6 8 -7 37 -1 37 8 0 7 47 -2
56 -3 3 -2 17 3 30 7 16 6 24 -1 24 -8 0 -7 5 1 15 8 10 9 15 2 15 -6 0 -9 6
-6 13 9 24 11 88 2 93 -4 3 -3 14 2 25 8 13 7 19 0 19 -6 0 -8 5 -4 12 7 11
10 53 4 61 -6 8 -7 37 -1 37 9 0 8 37 -1 46 -4 3 -3 16 1 28 6 19 7 41 1 49
-6 8 -7 37 -1 37 4 0 8 7 8 15 0 8 -5 15 -10 15 -5 0 -4 7 3 15 8 10 9 15 2
15 -6 0 -9 6 -6 13 9 24 10 88 2 93 -5 3 -5 11 1 18 5 6 6 18 2 25 -5 7 -5 28
-1 47 5 20 4 34 -2 34 -5 0 -6 6 -2 12 7 11 10 53 4 61 -6 8 -7 37 -1 37 8 0
7 47 -2 56 -3 3 -2 17 3 30 7 16 6 24 -1 24 -8 0 -7 5 1 15 8 10 9 15 2 15 -6
0 -9 6 -6 13 9 24 11 88 2 93 -4 3 -3 14 2 25 8 13 7 19 0 19 -6 0 -8 5 -4 12
7 11 10 53 4 61 -6 8 -7 37 -1 37 9 0 8 37 -1 46 -4 3 -3 16 1 28 6 19 7 41 1
49 -6 7 -7 37 -2 37 4 0 7 11 7 25 0 14 -4 25 -8 25 -5 0 -5 6 -1 12 7 11 10
53 4 61 -6 8 -7 37 -1 37 9 0 8 37 -1 46 -4 3 -3 16 1 28 6 19 7 41 1 49 -6 8
-7 37 -1 37 4 0 8 7 8 15 0 8 -5 15 -10 15 -5 0 -4 7 3 15 8 10 9 15 2 15 -6
0 -9 6 -6 13 9 24 10 88 2 93 -5 3 -5 11 1 18 5 6 6 18 2 25 -5 7 -5 28 -1 47
5 20 4 34 -2 34 -5 0 -6 6 -2 12 7 11 10 53 4 61 -6 8 -7 37 -1 37 8 0 7 47
-2 56 -3 3 -2 17 3 30 7 16 6 24 -1 24 -8 0 -7 5 1 15 8 10 9 15 2 15 -6 0 -9
6 -6 13 9 24 11 88 2 93 -4 3 -3 14 2 25 8 13 7 19 0 19 -6 0 -8 5 -4 12 7 11
10 53 4 61 -6 8 -7 37 -1 37 9 0 8 37 -1 46 -4 3 -3 16 1 28 6 19 7 41 1 49
-6 8 -7 37 0 37 7 0 5 48 -3 56 -3 3 -1 21 3 40 5 20 4 34 -2 34 -5 0 -6 6 -2
12 7 11 10 53 4 61 -6 8 -7 37 -1 37 8 0 7 47 -1 56 -4 3 -3 18 2 33 4 16 4
34 0 41 -4 6 -4 27 0 46 5 20 4 34 -2 34 -5 0 -6 6 -2 12 7 11 10 53 4 61 -6
8 -7 37 -1 37 8 0 7 47 -1 56 -4 3 -3 18 2 33 4 16 4 34 0 41 -4 6 -4 27 0 46
5 20 4 34 -2 34 -5 0 -6 6 -2 12 7 11 10 53 4 61 -6 8 -7 37 -1 37 8 0 7 47
-1 56 -4 3 -3 18 2 33 4 16 4 34 0 41 -4 6 -4 27 0 46 5 20 4 34 -2 34 -5 0
-6 6 -2 12 7 11 10 53 4 61 -6 8 -7 37 -1 37 8 0 7 47 -2 56 -3 3 -2 17 3 30
7 16 6 24 -1 24 -8 0 -7 5 1 15 8 10 9 15 2 15 -6 0 -9 6 -6 13 9 24 10 88 2
93 -5 3 -5 11 1 18 5 6 6 18 2 25 -5 7 -5 28 -1 47 5 20 4 34 -2 34 -5 0 -6 6
-2 12 7 11 10 53 4 61 -6 8 -7 37 -1 37 8 0 7 47 -2 56 -3 3 -2 17 3 30 7 16
6 24 -1 24 -8 0 -7 5 1 15 8 10 9 15 2 15 -6 0 -9 6 -6 13 9 24 11 88 2 93 -4
3 -3 14 2 25 8 13 7 19 0 19 -6 0 -8 5 -4 12 7 11 10 53 4 61 -6 8 -7 37 -1
37 9 0 8 37 -1 46 -4 3 -3 16 1 28 6 19 7 41 1 49 -6 8 -7 37 -1 37 4 0 8 7 8
15 0 8 -5 15 -10 15 -5 0 -4 7 3 15 8 10 9 15 2 15 -6 0 -9 6 -6 13 9 24 10
88 2 93 -5 3 -5 11 1 18 5 6 6 18 2 25 -5 7 -5 28 -1 47 5 20 4 34 -2 34 -5 0
-6 6 -2 12 7 11 10 53 4 61 -6 8 -7 37 -1 37 8 0 7 47 -2 56 -3 3 -2 17 3 30
7 16 6 24 -1 24 -8 0 -7 5 1 15 8 10 9 15 2 15 -6 0 -9 6 -6 13 9 24 11 88 2
93 -4 3 -3 14 2 25 8 13 7 19 0 19 -6 0 -8 5 -4 12 7 11 10 53 4 61 -6 8 -7
37 -1 37 9 0 8 37 -1 46 -4 3 -3 16 1 28 6 19 7 41 1 49 -6 8 -7 37 -1 37 4 0
8 7 8 15 0 8 -5 15 -10 15 -5 0 -4 7 3 15 8 9 8 15 2 15 -7 0 -8 11 -4 28 9
34 8 64 -1 79 -4 6 -3 14 3 18 6 4 8 11 4 16 -8 14 -11 79 -3 79 8 0 5 32 -4
47 -6 9 -304 12 -1257 12 -1074 0 -1250 -2 -1261 -15z"/>
<path d="M7928 11834 c-4 -3 -35 -6 -70 -7 -34 -1 -69 -6 -75 -10 -8 -5 -13
-4 -13 3 0 6 -4 8 -10 5 -9 -5 -59 -12 -140 -19 -14 -1 -31 -6 -39 -10 -10 -7
-12 -5 -6 4 6 10 4 11 -6 4 -17 -10 -30 -13 -86 -16 -24 -2 -43 -5 -43 -8 0
-4 -11 -7 -25 -8 -14 -1 -33 -2 -42 -3 -10 -1 -24 -7 -32 -13 -12 -9 -13 -8
-6 4 7 12 6 13 -6 3 -8 -7 -31 -14 -50 -17 -19 -3 -61 -12 -94 -21 -33 -9 -73
-19 -90 -22 -16 -3 -32 -8 -35 -12 -3 -4 -12 -6 -20 -6 -8 1 -20 -3 -27 -8 -7
-5 -17 -6 -23 -2 -5 3 -10 2 -10 -3 0 -5 -7 -9 -15 -10 -8 -1 -22 -3 -30 -4
-8 -1 -15 -5 -15 -10 0 -4 -3 -7 -7 -6 -18 4 -73 -14 -68 -23 4 -5 -1 -6 -9
-3 -8 3 -30 -2 -50 -11 -19 -9 -40 -18 -48 -19 -7 -2 -26 -8 -41 -14 -16 -7
-33 -12 -38 -12 -5 0 -9 -5 -9 -11 0 -5 -4 -8 -9 -4 -5 3 -12 1 -16 -5 -4 -6
-11 -8 -16 -5 -5 4 -9 1 -9 -4 0 -6 -3 -10 -7 -10 -5 1 -24 -4 -43 -12 -19 -7
-38 -12 -42 -11 -5 1 -8 -2 -8 -6 0 -5 -29 -21 -65 -37 -36 -15 -65 -32 -65
-36 0 -5 -3 -8 -7 -7 -13 4 -73 -26 -73 -36 0 -4 -7 -6 -15 -2 -8 3 -15 2 -15
-3 0 -5 -13 -14 -30 -21 -16 -7 -30 -17 -30 -22 0 -6 -6 -8 -13 -5 -8 3 -20
-3 -28 -14 -7 -10 -19 -19 -27 -19 -7 0 -23 -9 -35 -20 -12 -11 -27 -18 -35
-15 -7 2 -10 0 -7 -5 3 -6 0 -10 -8 -10 -8 0 -18 -7 -21 -16 -3 -8 -10 -13
-15 -10 -5 3 -14 -1 -21 -9 -6 -8 -32 -26 -56 -40 -24 -14 -44 -30 -44 -36 0
-6 -5 -7 -10 -4 -6 3 -13 -1 -16 -9 -3 -9 -10 -13 -15 -10 -5 3 -12 -2 -15
-10 -3 -9 -13 -16 -20 -16 -8 0 -17 -7 -20 -15 -4 -8 -12 -15 -20 -15 -8 0
-14 -4 -14 -9 0 -5 -9 -13 -20 -16 -11 -4 -18 -10 -15 -15 3 -5 -6 -12 -20
-16 -14 -3 -25 -12 -25 -20 0 -8 -3 -13 -7 -13 -21 3 -33 -2 -28 -12 4 -6 -2
-13 -14 -16 -11 -3 -18 -9 -15 -14 3 -5 0 -9 -6 -9 -6 0 -34 -21 -62 -47 -28
-27 -54 -47 -59 -45 -5 1 -9 -2 -9 -8 0 -13 -37 -50 -50 -50 -6 0 -9 -3 -8 -7
4 -10 -39 -53 -45 -46 -3 2 -8 -5 -12 -16 -3 -12 -14 -21 -22 -21 -9 0 -14 -3
-10 -6 3 -4 -9 -21 -28 -39 -19 -17 -32 -35 -28 -39 3 -3 1 -6 -6 -6 -7 0 -19
-7 -27 -15 -9 -8 -13 -15 -10 -15 3 0 -9 -16 -27 -35 -17 -19 -45 -51 -62 -71
-16 -20 -38 -45 -47 -55 -10 -10 -19 -22 -20 -26 -2 -5 -6 -7 -10 -5 -5 1 -8
-8 -8 -20 0 -12 -3 -18 -7 -15 -7 7 -48 -53 -45 -65 1 -5 -2 -8 -7 -8 -5 0
-25 -25 -46 -55 -20 -30 -41 -55 -46 -55 -6 0 -8 -4 -4 -9 3 -5 -2 -17 -11
-25 -8 -9 -13 -16 -9 -16 3 0 1 -6 -5 -12 -41 -49 -49 -62 -44 -69 3 -5 0 -9
-5 -9 -6 0 -11 -7 -11 -15 0 -8 -4 -15 -10 -15 -5 0 -12 -11 -16 -25 -3 -14
-10 -25 -15 -25 -5 0 -9 -7 -9 -15 0 -9 -6 -18 -14 -21 -8 -3 -13 -11 -10 -19
3 -7 -1 -19 -9 -26 -7 -8 -24 -36 -38 -64 -13 -27 -27 -52 -32 -53 -4 -2 -5
-8 -1 -13 3 -5 0 -9 -5 -9 -6 0 -10 -3 -9 -7 2 -12 -13 -46 -31 -67 -13 -16
-13 -18 -1 -12 12 6 11 4 -1 -6 -9 -7 -15 -21 -13 -30 1 -10 -2 -18 -7 -18 -5
0 -9 -6 -9 -14 0 -8 -6 -21 -12 -28 -13 -14 -20 -33 -21 -55 0 -7 -4 -13 -9
-13 -4 0 -7 -3 -6 -7 1 -5 -3 -18 -10 -30 -7 -13 -10 -23 -6 -23 3 0 2 -6 -3
-12 -12 -15 -48 -122 -42 -124 2 -1 -5 -12 -16 -25 -12 -13 -14 -19 -5 -14 12
7 13 6 3 -7 -7 -8 -10 -18 -6 -21 3 -4 0 -7 -7 -7 -7 0 -10 -3 -7 -7 4 -3 1
-13 -6 -21 -10 -13 -9 -14 1 -8 11 6 11 4 3 -10 -19 -33 -49 -134 -37 -127 6
4 6 0 -1 -8 -7 -9 -15 -26 -17 -40 -3 -13 -5 -24 -7 -24 -2 0 -7 -25 -12 -60
-2 -11 -6 -26 -11 -33 -4 -6 -5 -16 -1 -21 3 -5 1 -12 -5 -16 -6 -4 -8 -10 -5
-15 3 -5 1 -11 -5 -15 -5 -3 -10 -12 -10 -18 0 -7 4 -6 10 3 12 19 13 5 1 -18
-5 -9 -11 -35 -15 -57 -5 -36 -10 -69 -21 -132 -2 -13 -6 -27 -10 -33 -3 -5
-1 -10 6 -10 8 0 8 -4 2 -12 -6 -7 -9 -21 -8 -30 2 -10 -1 -21 -6 -24 -6 -3
-5 -11 2 -20 7 -8 7 -14 1 -14 -5 0 -9 -17 -8 -37 2 -21 -1 -46 -6 -55 -5 -10
-4 -19 2 -23 7 -4 8 -11 2 -18 -6 -7 -9 -30 -8 -52 1 -22 0 -44 -3 -49 -8 -16
-5 -112 4 -126 5 -8 4 -11 -1 -7 -6 3 -8 -39 -6 -111 2 -64 5 -143 5 -174 1
-32 4 -58 7 -58 3 0 5 -21 6 -47 1 -74 8 -117 19 -125 6 -5 5 -8 -3 -8 -8 0
-10 -5 -5 -12 4 -7 8 -22 8 -33 0 -11 4 -26 8 -32 5 -8 4 -13 -3 -13 -7 0 -7
-7 1 -22 7 -13 12 -24 11 -25 -1 -2 -2 -4 -1 -5 1 -2 3 -16 5 -33 7 -51 12
-80 14 -85 1 -3 2 -9 1 -14 -1 -4 4 -14 10 -22 9 -11 9 -14 0 -14 -9 0 -8 -6
1 -22 6 -13 13 -30 14 -38 4 -21 17 -82 21 -100 2 -8 5 -21 5 -27 1 -7 4 -13
8 -13 3 0 7 -8 8 -17 2 -21 10 -57 12 -60 2 -2 3 -6 4 -10 1 -5 5 -14 9 -20 5
-7 6 -17 2 -22 -3 -5 1 -15 8 -23 8 -7 13 -23 12 -36 -1 -12 2 -22 7 -22 4 0
8 -7 8 -15 0 -8 4 -23 9 -33 5 -9 15 -36 22 -59 7 -24 15 -43 19 -43 4 0 7 -7
8 -15 1 -8 3 -22 4 -30 1 -8 6 -15 11 -15 5 0 7 -6 4 -14 -3 -8 1 -20 9 -26 8
-7 14 -21 14 -31 0 -11 4 -19 8 -19 4 0 8 -10 9 -22 1 -11 7 -24 13 -28 6 -4
12 -13 14 -21 5 -31 18 -59 27 -59 5 0 9 -8 9 -19 0 -10 10 -31 22 -47 13 -15
16 -24 8 -19 -8 5 -4 -5 8 -22 12 -17 22 -36 22 -42 0 -6 4 -11 9 -11 5 0 12
-7 15 -16 4 -10 2 -13 -7 -9 -6 4 -3 -1 7 -9 11 -9 16 -16 10 -16 -5 0 -1 -7
9 -14 10 -8 18 -18 18 -23 0 -4 8 -21 18 -38 9 -16 18 -34 18 -39 1 -5 6 -12
11 -15 6 -3 12 -13 14 -21 2 -8 12 -22 23 -32 11 -9 16 -17 12 -18 -5 0 -2 -7
5 -15 25 -28 34 -40 36 -50 2 -5 12 -20 22 -32 11 -13 17 -23 14 -23 -3 0 1
-7 8 -15 20 -22 31 -37 58 -75 13 -19 29 -40 35 -47 30 -36 33 -41 28 -47 -4
-3 2 -6 12 -6 10 0 16 -3 12 -6 -6 -6 14 -33 57 -75 16 -16 25 -29 21 -29 -4
0 8 -13 26 -30 19 -16 31 -30 27 -30 -3 0 16 -22 42 -49 27 -27 45 -52 42 -56
-4 -4 -2 -5 3 -4 6 2 49 -35 97 -83 47 -48 89 -84 92 -81 3 4 6 0 6 -8 0 -8
14 -23 30 -34 16 -11 30 -23 30 -27 0 -5 4 -8 10 -8 5 0 29 -20 54 -44 25 -24
47 -41 50 -39 2 3 11 -4 18 -16 7 -12 16 -21 20 -21 7 0 17 -7 71 -53 12 -10
34 -26 50 -35 15 -9 27 -20 27 -25 0 -4 4 -6 9 -3 5 3 11 -1 15 -9 3 -8 10
-15 16 -15 6 0 18 -6 25 -13 34 -30 43 -35 49 -30 3 4 6 1 6 -5 0 -7 7 -12 15
-12 8 0 15 -4 15 -10 0 -5 7 -10 15 -10 8 0 15 -4 15 -10 0 -5 9 -10 20 -10
10 0 24 -9 30 -20 6 -11 15 -18 20 -15 4 3 15 -2 23 -10 9 -8 20 -15 26 -15 6
0 11 -4 11 -10 0 -5 9 -10 20 -10 11 0 20 -4 20 -10 0 -5 6 -10 14 -10 7 0 19
-7 26 -15 7 -8 16 -12 21 -9 5 3 9 0 9 -6 0 -6 5 -8 10 -5 6 3 10 1 10 -5 0
-7 6 -10 14 -7 8 3 17 -1 20 -9 3 -9 10 -12 16 -9 5 3 10 1 10 -4 0 -6 7 -11
15 -11 18 0 57 -20 67 -35 4 -5 8 -6 8 -1 0 5 7 2 17 -5 9 -8 18 -13 19 -12
10 4 44 -11 44 -20 0 -6 3 -8 6 -4 3 3 32 -5 63 -19 31 -14 64 -26 74 -27 9
-1 17 -5 17 -9 0 -4 9 -8 20 -8 11 0 20 -5 20 -10 0 -6 3 -9 8 -9 19 3 43 -2
39 -8 -3 -5 6 -9 20 -10 25 -1 35 -5 95 -33 16 -8 31 -11 34 -7 4 3 16 1 28
-5 11 -7 28 -13 36 -14 21 -4 55 -12 55 -14 0 -1 13 -4 30 -6 16 -3 33 -11 37
-17 6 -9 8 -8 8 2 0 12 3 12 12 3 7 -7 25 -12 40 -12 15 0 28 -4 28 -8 0 -5
14 -7 30 -6 17 1 30 -2 30 -7 0 -4 6 -6 14 -3 8 3 17 1 20 -4 3 -6 16 -8 28
-4 11 3 19 1 16 -4 -4 -5 10 -9 30 -8 21 0 57 -5 82 -11 25 -6 52 -10 60 -10
8 1 21 -4 29 -9 12 -9 13 -8 6 4 -8 13 -7 13 8 1 9 -7 28 -11 42 -9 13 3 22 1
19 -3 -3 -5 15 -7 41 -6 25 1 45 -1 45 -6 0 -5 9 -7 20 -4 11 3 20 1 20 -4 0
-4 7 -6 15 -3 8 4 23 3 33 -1 9 -4 44 -8 77 -10 33 -2 60 -4 60 -5 0 -1 8 -3
18 -5 9 -2 17 1 17 7 0 6 6 5 15 -2 9 -7 18 -10 22 -7 3 4 14 2 24 -4 13 -7
19 -6 19 1 0 7 7 8 18 3 9 -5 63 -9 119 -8 57 0 103 -4 103 -9 0 -5 7 -3 15 4
12 10 15 10 15 -1 0 -11 2 -11 10 1 8 12 11 13 19 1 5 -8 11 -9 15 -3 4 7 17
7 36 2 21 -6 30 -5 30 3 0 8 3 8 8 2 4 -5 23 -10 42 -10 19 0 38 5 42 10 5 7
8 6 8 -1 0 -11 63 -10 82 2 6 4 9 3 5 -2 -6 -11 7109 -11 7120 0 4 4 8 232 8
507 0 379 -3 499 -12 499 -6 0 -15 -5 -19 -12 -5 -7 -11 -5 -21 7 -8 12 -13
14 -13 6 0 -10 -3 -11 -13 -2 -8 6 -17 8 -21 4 -10 -11 -70 -9 -78 2 -5 6 -8
6 -8 0 0 -12 -369 -13 -389 0 -9 5 -12 4 -8 -1 7 -12 -214 -11 -233 1 -8 5
-11 4 -7 -1 3 -6 -50 -9 -134 -9 -76 0 -139 4 -139 8 0 5 -6 5 -12 0 -21 -13
-50 -14 -42 -2 4 8 1 8 -12 2 -22 -11 -64 -10 -84 2 -8 5 -11 4 -7 -2 4 -6
-27 -9 -79 -9 -46 1 -84 5 -84 9 0 5 -6 5 -12 0 -21 -13 -50 -14 -42 -2 4 8 1
8 -12 2 -22 -11 -64 -10 -84 2 -8 5 -11 4 -7 -2 7 -11 -184 -10 -203 2 -8 5
-11 4 -7 -1 7 -12 -214 -11 -233 1 -8 5 -11 4 -7 -1 7 -12 -214 -11 -233 1 -8
5 -11 4 -7 -1 7 -12 -214 -11 -233 1 -8 5 -11 4 -7 -1 7 -12 -214 -11 -233 1
-8 5 -11 4 -7 -1 3 -6 -50 -9 -134 -9 -76 0 -139 4 -139 8 0 5 -6 5 -12 0 -21
-13 -50 -14 -42 -2 4 8 1 8 -12 2 -22 -11 -64 -10 -84 2 -8 5 -11 4 -7 -2 4
-6 -27 -9 -79 -9 -46 1 -84 5 -84 9 0 5 -6 5 -12 0 -21 -13 -50 -14 -42 -2 4
8 1 8 -12 2 -22 -11 -64 -10 -84 2 -8 5 -11 4 -7 -2 7 -11 -184 -10 -203 2 -8
5 -11 4 -7 -1 7 -12 -214 -11 -233 1 -8 5 -11 4 -7 -1 7 -12 -214 -11 -233 1
-8 5 -11 4 -7 -1 7 -12 -214 -11 -233 1 -8 5 -11 4 -7 -1 7 -12 -214 -11 -233
1 -8 5 -11 4 -7 -1 3 -6 -50 -9 -134 -9 -76 0 -139 4 -139 8 0 5 -6 5 -12 0
-21 -13 -50 -14 -42 -2 4 8 1 8 -12 2 -22 -11 -64 -10 -84 2 -8 5 -11 4 -7 -2
4 -6 -27 -9 -79 -9 -46 1 -84 5 -84 9 0 5 -6 5 -12 0 -21 -13 -50 -14 -42 -2
4 8 1 8 -12 2 -22 -11 -64 -10 -84 2 -8 5 -11 4 -7 -2 4 -6 -27 -9 -79 -9 -46
1 -84 5 -84 9 0 5 -6 5 -12 0 -21 -13 -50 -14 -42 -2 4 8 1 8 -12 2 -22 -11
-64 -10 -84 2 -8 5 -11 4 -7 -2 4 -6 -27 -9 -79 -9 -46 1 -84 5 -84 9 0 5 -6
5 -12 0 -21 -13 -50 -14 -42 -2 4 8 1 8 -12 2 -22 -11 -64 -10 -84 2 -8 5 -11
4 -7 -2 7 -11 -184 -10 -203 2 -8 5 -11 4 -7 -1 7 -12 -214 -11 -233 1 -8 5
-11 4 -7 -1 7 -12 -214 -11 -233 1 -8 5 -11 4 -7 -1 6 -11 -202 -12 -220 -1
-5 4 -13 4 -17 0 -10 -11 -56 -12 -56 -2 0 6 -6 7 -12 2 -17 -10 -68 -11 -74
-1 -3 5 -10 6 -15 2 -15 -9 -69 -11 -69 -3 0 4 -13 4 -30 -1 -20 -6 -30 -5
-30 2 0 7 -4 7 -13 -1 -8 -6 -16 -8 -19 -6 -3 3 -77 8 -164 10 -88 2 -159 4
-159 5 0 1 -22 3 -50 5 -27 1 -50 3 -50 5 0 1 -25 3 -55 5 -30 2 -57 4 -60 5
-3 1 -17 2 -32 2 -16 1 -28 3 -28 7 0 3 -15 7 -32 7 -65 3 -118 9 -118 14 0 3
-8 6 -17 7 -55 4 -101 10 -110 16 -5 3 -26 7 -46 9 -21 1 -37 5 -37 8 0 3 -10
6 -22 7 -13 1 -36 4 -53 8 -16 4 -37 8 -47 9 -9 1 -24 9 -34 17 -16 12 -17 12
-9 -1 7 -12 6 -13 -6 -4 -8 6 -22 10 -31 9 -10 -2 -18 1 -18 7 0 6 -7 8 -15 4
-8 -3 -15 -1 -15 5 0 6 -7 9 -15 5 -8 -3 -15 -1 -15 4 0 6 -3 9 -7 9 -15 -3
-73 14 -73 20 0 4 -12 8 -27 9 -15 1 -30 8 -35 15 -4 6 -8 8 -8 4 0 -4 -10 -2
-22 5 -13 6 -32 13 -43 15 -11 2 -24 8 -29 13 -6 6 -18 10 -28 10 -10 0 -18 4
-18 10 0 5 -3 9 -7 9 -20 -3 -34 2 -28 11 3 5 0 7 -8 4 -8 -3 -18 0 -22 5 -3
6 -11 9 -16 6 -5 -4 -9 -1 -9 4 0 6 -9 11 -21 11 -11 0 -17 5 -14 10 3 6 -3
10 -14 10 -12 0 -21 5 -21 11 0 6 -7 9 -15 5 -9 -3 -15 0 -15 10 0 8 -4 13 -9
9 -5 -3 -16 1 -24 9 -8 8 -17 12 -21 9 -3 -4 -6 -1 -6 6 0 7 -4 10 -9 7 -5 -3
-12 1 -15 10 -3 8 -10 13 -15 10 -5 -4 -11 -2 -13 3 -1 5 -9 11 -17 13 -14 3
-41 21 -66 46 -8 6 -18 12 -24 12 -6 0 -11 5 -11 10 0 6 -7 10 -15 10 -8 0
-15 5 -15 10 0 6 -5 10 -11 10 -6 0 -32 18 -58 40 -26 22 -53 40 -60 40 -7 0
-9 4 -6 10 3 6 0 10 -7 10 -8 0 -20 9 -28 20 -8 11 -18 20 -22 20 -4 0 -26 18
-48 40 -22 22 -45 40 -50 40 -6 0 -10 6 -10 14 0 8 -9 18 -20 21 -11 3 -20 14
-20 22 0 9 -3 14 -6 11 -5 -6 -94 77 -94 88 0 3 -12 18 -27 33 -41 40 -93 101
-93 108 0 3 -11 16 -25 29 -14 13 -25 30 -25 39 0 8 -3 14 -8 12 -4 -1 -8 2
-9 7 -1 5 -5 12 -10 15 -22 15 -52 64 -46 75 3 6 3 8 -2 4 -11 -10 -104 130
-140 210 -9 17 -20 32 -25 32 -6 0 -9 3 -8 8 2 11 -22 66 -32 72 -5 3 -10 17
-12 32 -2 15 -8 31 -13 35 -4 5 -5 2 0 -6 5 -9 4 -12 -3 -7 -7 4 -12 14 -12
22 0 8 -11 38 -25 67 -14 28 -26 62 -27 74 -1 12 -6 19 -10 17 -4 -3 -8 4 -8
15 0 11 -4 23 -10 26 -5 3 -10 17 -10 30 0 13 -4 26 -9 29 -4 3 -12 20 -16 38
-9 37 -12 47 -15 51 -1 1 -3 9 -5 17 -2 8 -12 45 -23 82 -11 37 -17 70 -14 73
3 3 1 5 -5 5 -9 0 -11 12 -16 88 -1 12 -6 22 -11 22 -4 0 -6 7 -3 15 4 8 2 17
-2 19 -5 3 -7 17 -6 31 2 14 0 25 -4 25 -4 0 -8 15 -9 33 -2 46 -9 112 -12
112 -2 0 -7 74 -13 175 -1 25 -6 50 -10 57 -4 6 -4 14 1 16 9 7 9 88 -1 104
-4 6 -3 14 2 17 4 3 8 33 7 66 -1 33 1 60 4 60 3 0 5 21 4 48 0 26 4 53 9 60
6 8 6 12 -2 12 -7 0 -9 4 -6 10 8 13 21 101 28 183 1 15 5 27 9 27 4 0 7 8 7
18 0 9 2 31 5 47 2 17 5 36 5 43 1 7 5 11 9 8 5 -3 8 5 7 17 -1 12 2 36 7 52
5 17 11 37 13 45 2 8 4 15 5 15 2 0 11 38 12 53 1 6 5 12 9 12 4 0 6 8 5 18
-3 18 -1 25 28 80 12 23 14 32 5 32 -7 0 -5 6 6 13 10 8 15 19 11 25 -4 7 -2
12 3 12 6 0 10 3 9 8 -1 4 5 23 14 42 23 50 31 74 30 83 -1 4 3 7 8 7 6 0 10
8 10 18 0 9 7 26 15 36 8 11 15 27 15 37 0 9 7 20 16 23 8 3 13 10 10 15 -4 5
1 17 10 25 8 9 13 16 9 16 -3 0 3 14 15 30 12 17 18 30 14 30 -4 0 1 7 12 16
10 8 12 13 4 9 -13 -6 -13 -5 0 7 14 12 23 26 54 83 6 11 18 25 26 32 8 7 11
13 7 13 -8 0 4 17 53 77 6 7 10 17 10 22 0 6 9 15 20 21 11 6 18 15 15 21 -4
5 1 12 9 15 9 3 14 9 12 13 -3 4 6 15 20 25 13 11 24 23 24 29 0 5 11 20 26
33 14 13 23 24 20 24 -2 0 16 23 42 51 63 69 212 217 212 210 0 -3 11 7 25 23
14 16 25 27 25 23 0 -3 13 7 28 21 51 49 104 87 116 84 6 -2 8 0 4 3 -7 7 33
45 47 45 11 0 55 37 50 42 -3 2 11 10 30 17 19 7 35 17 35 22 0 6 5 7 10 4 6
-3 10 -2 10 3 0 5 17 17 37 28 21 10 44 25 51 32 7 6 20 12 27 12 8 0 18 7 23
16 5 9 11 15 13 13 9 -5 49 13 49 22 0 5 9 9 20 9 11 0 23 7 26 15 4 8 9 13
13 10 4 -2 45 14 90 36 45 22 86 37 91 34 4 -3 10 0 12 5 2 6 10 12 18 13 8 2
21 6 28 10 6 5 17 5 22 2 6 -3 10 -2 10 3 0 5 33 20 73 32 39 12 79 25 87 28
8 3 18 6 23 7 4 2 9 4 12 5 7 4 15 5 58 14 20 5 40 13 43 18 4 6 10 5 15 -3 6
-10 9 -10 9 -2 0 7 7 10 15 7 8 -4 15 -2 15 3 0 5 10 10 23 10 22 1 77 10 87
13 3 2 8 2 13 1 4 0 7 5 7 12 0 8 4 7 10 -3 5 -8 10 -10 10 -5 0 6 10 11 23
12 12 1 42 3 67 5 25 2 50 6 55 9 6 3 29 5 53 5 23 -1 42 4 42 9 0 6 4 4 9 -4
5 -7 11 -9 14 -4 3 5 53 9 111 9 58 -1 106 2 106 6 0 4 6 5 13 3 6 -3 59 -7
117 -10 134 -6 168 -10 176 -17 3 -4 17 -3 30 2 15 6 26 6 30 -1 3 -5 14 -9
23 -7 10 2 26 -4 36 -12 12 -9 16 -10 11 -2 -6 10 -1 11 21 7 15 -4 37 -8 48
-10 11 -2 22 -4 25 -5 3 -1 13 -1 24 0 10 1 16 -2 13 -7 -3 -4 13 -9 36 -10
22 -2 43 -6 46 -10 3 -5 19 -9 35 -10 16 -1 37 -5 45 -9 17 -7 36 -13 61 -19
60 -12 80 -18 80 -25 0 -3 7 -7 15 -8 8 -1 22 -3 30 -4 8 -1 15 -5 15 -10 0
-5 3 -7 8 -5 4 3 18 0 32 -6 64 -27 94 -35 103 -30 6 3 7 1 4 -4 -4 -6 14 -18
41 -28 26 -10 57 -25 70 -33 12 -8 22 -10 22 -6 0 5 4 4 8 -3 4 -6 16 -13 27
-15 11 -1 22 -5 25 -8 18 -18 71 -50 65 -39 -4 8 2 4 14 -9 12 -12 26 -20 32
-17 5 4 9 1 9 -4 0 -6 6 -10 13 -9 6 2 11 -4 9 -12 -2 -8 0 -12 4 -8 4 4 14 2
22 -5 13 -10 14 -9 7 3 -5 8 8 0 28 -17 21 -18 45 -33 53 -33 8 0 12 -4 9 -10
-3 -5 0 -10 8 -10 8 0 20 -7 27 -15 7 -8 16 -13 20 -10 4 3 11 -2 14 -11 3 -8
10 -13 14 -10 5 3 15 -4 22 -15 8 -10 20 -19 27 -19 7 0 18 -9 25 -20 7 -11
18 -20 25 -20 7 0 13 -4 13 -8 0 -4 25 -25 55 -47 30 -22 55 -47 55 -55 0 -13
1 -13 10 0 5 8 10 10 10 4 0 -12 34 -54 43 -54 9 0 157 -151 174 -177 9 -13
19 -20 24 -17 5 3 8 2 7 -3 -3 -7 24 -43 65 -85 9 -10 17 -22 17 -28 0 -5 3
-10 8 -10 4 0 23 -23 42 -50 19 -27 39 -50 43 -50 5 0 6 -4 2 -9 -3 -5 4 -16
15 -24 11 -7 17 -17 13 -20 -3 -4 -1 -7 5 -7 7 0 12 -7 12 -15 0 -8 5 -15 11
-15 5 0 7 -4 4 -10 -3 -5 1 -10 9 -10 9 0 15 -3 15 -7 -4 -23 2 -43 11 -38 6
3 10 -1 10 -9 0 -9 5 -16 11 -16 5 0 8 -4 5 -9 -3 -5 3 -20 14 -33 11 -14 16
-28 13 -32 -3 -3 -2 -6 4 -6 5 0 20 -21 33 -47 13 -27 31 -56 39 -67 9 -10 15
-20 13 -22 -2 -3 8 -28 22 -57 13 -29 26 -59 28 -67 2 -8 9 -21 16 -29 7 -7
11 -20 8 -27 -3 -8 -2 -14 2 -14 9 0 58 -130 54 -142 -1 -5 2 -8 6 -8 8 0 10
-7 14 -50 1 -11 7 -20 12 -20 5 0 7 -3 3 -6 -3 -4 1 -23 8 -43 8 -20 16 -45
18 -56 2 -11 7 -28 11 -37 5 -10 6 -23 3 -30 -2 -7 3 -22 12 -32 11 -14 12
-17 2 -11 -10 6 -12 4 -5 -6 11 -17 15 -36 17 -71 1 -16 4 -28 7 -28 3 0 6 -8
7 -17 3 -53 8 -79 16 -90 6 -9 5 -13 -2 -13 -7 0 -9 -5 -4 -12 10 -17 12 -31
17 -106 2 -34 6 -65 10 -69 11 -11 7 -25 -6 -17 -7 5 -8 3 -2 -7 4 -8 9 -34
10 -59 1 -25 2 -54 3 -65 1 -20 8 -20 501 -20 275 0 500 4 500 8 0 5 4 6 8 3
10 -6 10 45 -1 61 -4 6 -3 14 2 18 7 4 7 15 1 31 -6 14 -6 23 -2 20 5 -3 7 5
6 17 -1 12 -3 22 -5 22 -1 0 -3 25 -5 55 -5 92 -12 151 -18 157 -3 3 -1 12 5
20 9 10 8 13 -1 13 -7 0 -10 8 -7 20 3 11 2 20 -1 20 -4 0 -7 20 -6 45 0 25
-2 45 -6 45 -5 0 -11 38 -13 93 -1 9 -5 17 -10 17 -4 0 -6 4 -3 8 5 8 -6 63
-20 96 -6 15 -4 17 7 11 11 -7 12 -6 3 6 -15 19 -32 84 -36 136 -1 12 -6 19
-10 17 -4 -3 -8 4 -8 16 0 12 -5 30 -10 41 -8 14 -7 19 2 19 11 0 11 2 0 8 -7
5 -15 22 -18 37 -3 16 -9 34 -13 40 -5 5 -7 18 -6 28 2 9 -1 17 -6 17 -5 0 -9
8 -9 18 0 10 -3 22 -7 26 -7 6 -11 24 -15 58 -1 9 -4 15 -7 13 -2 -3 -15 28
-29 68 -13 39 -28 76 -33 81 -5 6 -9 18 -9 28 0 10 -4 18 -8 18 -4 0 -9 10 -9
22 -1 13 -7 24 -13 26 -5 2 -10 10 -10 18 0 17 -21 56 -35 66 -6 5 -5 8 3 8 8
0 5 8 -8 22 -11 12 -20 30 -20 40 0 10 -4 18 -10 18 -5 0 -10 9 -10 21 0 11
-4 17 -10 14 -5 -3 -10 1 -10 10 0 9 -14 42 -32 73 -17 31 -36 66 -42 77 -6
10 -17 25 -24 33 -7 7 -10 18 -7 23 4 5 2 9 -3 9 -5 0 -20 20 -33 45 -13 25
-27 45 -31 45 -5 0 -8 7 -8 15 0 8 -4 15 -10 15 -5 0 -10 7 -10 15 0 8 -5 15
-12 15 -6 0 -9 3 -5 6 3 3 -5 18 -18 32 -13 14 -22 29 -19 34 3 4 -2 8 -11 8
-9 0 -13 5 -10 10 3 6 -1 13 -9 16 -9 3 -16 12 -16 20 0 8 -9 22 -20 31 -11
10 -20 22 -20 27 0 5 -10 17 -22 27 -11 11 -18 19 -15 19 3 0 -5 12 -19 27
-13 14 -35 40 -47 56 -12 16 -30 37 -39 45 -10 9 -18 22 -18 30 0 7 -4 10 -10
7 -5 -3 -10 1 -10 10 0 9 -4 13 -10 10 -5 -3 -10 -1 -10 5 0 6 -20 31 -45 56
-25 24 -45 49 -45 54 0 6 -6 10 -12 10 -7 1 -26 19 -43 40 -16 21 -34 39 -38
40 -4 0 -35 27 -67 60 -33 33 -60 56 -60 52 0 -4 -5 1 -11 11 -5 9 -18 17 -27
17 -15 0 -15 2 -2 10 13 8 12 10 -2 10 -10 0 -18 4 -18 8 0 5 -12 14 -26 20
-15 7 -22 17 -18 24 4 6 3 8 -2 5 -6 -3 -27 10 -48 29 -20 19 -39 34 -42 34
-6 0 -26 16 -60 47 -13 12 -24 19 -24 16 0 -3 -8 4 -19 15 -10 12 -21 19 -24
15 -4 -3 -9 2 -13 11 -3 9 -15 16 -25 16 -10 0 -19 3 -19 8 0 4 -18 18 -40 32
-22 14 -40 28 -40 32 0 5 -9 8 -19 8 -10 0 -22 7 -25 16 -3 8 -10 12 -16 9 -5
-3 -10 -2 -10 2 0 5 -22 20 -49 34 -27 13 -47 27 -44 31 2 5 -5 8 -16 8 -12 0
-21 4 -21 8 0 5 -16 14 -35 22 -19 8 -35 18 -35 22 0 5 -4 7 -9 3 -5 -3 -12
-1 -16 5 -4 6 -10 8 -15 5 -4 -3 -11 2 -14 11 -3 8 -10 12 -16 9 -5 -3 -10 -1
-10 4 0 6 -9 11 -20 11 -11 0 -20 5 -20 11 0 5 -4 8 -9 4 -5 -3 -16 1 -24 9
-8 8 -17 12 -21 9 -3 -4 -6 -1 -6 5 0 7 -3 11 -7 10 -5 -1 -26 7 -48 17 -22
10 -43 19 -47 20 -5 2 -11 4 -15 5 -5 1 -11 2 -15 1 -5 0 -8 4 -8 10 0 5 -4 7
-10 4 -5 -3 -10 -1 -10 6 0 7 -3 9 -7 6 -3 -4 -11 -3 -17 2 -6 4 -36 17 -66
27 -30 10 -58 23 -61 28 -4 5 -12 5 -18 2 -6 -4 -11 -2 -11 4 0 6 -6 10 -12 8
-7 -1 -24 4 -38 12 -14 7 -26 13 -27 12 -8 -5 -63 12 -63 19 0 4 -9 6 -20 4
-11 -2 -22 1 -25 6 -4 5 -11 7 -16 4 -5 -4 -9 -2 -9 2 0 5 -14 10 -32 11 -18
2 -35 6 -38 10 -6 8 -22 12 -62 15 -15 1 -28 5 -28 9 0 4 -8 7 -17 7 -38 1
-68 6 -73 13 -3 4 -22 8 -43 10 -20 1 -37 5 -37 8 0 3 -15 7 -32 9 -42 4 -73
9 -73 11 0 3 -46 9 -83 11 -18 1 -35 6 -38 10 -2 4 -16 6 -29 3 -14 -2 -25 0
-25 6 0 6 -9 6 -25 0 -14 -5 -25 -6 -25 -1 0 5 -16 8 -35 6 -19 -2 -35 1 -35
6 0 5 -11 4 -26 -1 -14 -6 -23 -6 -20 -2 3 5 -16 8 -42 7 -26 0 -51 1 -56 3
-19 10 -356 7 -356 -3 0 -5 -4 -4 -8 3 -5 7 -11 10 -14 6z"/>
<path d="M13800 11759 c-19 -10 -111 -40 -127 -41 -7 -1 -13 -5 -13 -10 0 -5
-3 -7 -8 -4 -4 2 -27 -9 -50 -25 -24 -16 -48 -26 -54 -23 -6 4 -8 3 -5 -3 4
-6 -6 -19 -21 -28 -15 -10 -31 -24 -35 -32 -4 -7 -15 -13 -22 -13 -8 0 -15 -4
-15 -10 0 -9 -21 -35 -72 -91 -10 -10 -16 -19 -13 -19 3 0 -7 -19 -22 -42 -14
-24 -26 -45 -26 -48 0 -3 -4 -16 -10 -30 -11 -28 -16 -47 -19 -72 -1 -10 -5
-18 -8 -18 -8 0 -9 -6 -13 -123 -1 -54 0 -100 3 -102 3 -2 5 -19 5 -39 -1 -19
3 -33 8 -29 5 3 8 -3 6 -13 -3 -21 7 -46 59 -153 20 -40 42 -76 49 -78 7 -3
13 -10 13 -17 0 -15 139 -146 156 -146 7 0 14 -4 16 -8 8 -20 160 -85 195 -83
5 0 18 -6 30 -14 14 -10 24 -11 28 -5 4 6 12 7 18 3 17 -10 177 -11 177 0 0 4
4 6 8 3 4 -3 26 0 48 5 21 6 48 12 59 14 11 2 40 14 65 26 25 12 50 22 57 22
7 0 11 5 10 11 -1 5 3 10 8 11 19 1 74 39 69 47 -3 4 2 8 10 8 9 0 16 5 16 10
0 6 8 10 17 10 9 0 14 3 10 6 -8 8 16 33 26 27 4 -2 7 2 7 10 0 8 7 18 16 21
9 4 14 9 11 12 -3 3 2 14 11 23 23 24 45 57 45 67 0 5 7 15 14 22 7 7 13 22
13 32 0 10 4 20 9 22 6 2 13 19 16 38 3 19 10 37 16 38 5 2 7 7 4 12 -3 5 -1
20 5 35 7 19 7 24 -1 19 -7 -4 -7 1 1 15 6 12 11 32 10 44 -1 12 -1 27 0 32 4
18 -5 140 -10 140 -2 0 -4 14 -5 30 -1 17 -12 52 -24 78 -11 27 -21 55 -21 63
0 8 -4 14 -8 14 -9 0 -37 50 -34 62 1 4 -7 12 -18 18 -11 6 -20 15 -20 21 0 6
-13 24 -30 39 -16 15 -30 34 -30 41 0 7 -3 10 -6 6 -3 -3 -17 4 -30 16 -39 37
-54 48 -54 41 0 -4 -9 3 -19 15 -11 12 -23 22 -28 22 -16 -1 -73 23 -73 31 0
4 -14 8 -31 8 -16 0 -28 4 -25 8 4 7 -26 12 -81 15 -7 0 -13 3 -13 7 0 10
-179 10 -185 0 -3 -5 -15 -6 -28 -1 -12 5 -29 5 -37 0z m117 -98 c15 5 29 6
32 2 3 -4 35 -9 71 -11 35 -2 67 -7 70 -11 3 -5 13 -7 23 -5 9 1 17 -2 17 -7
0 -6 5 -7 10 -4 6 3 10 1 10 -5 0 -6 5 -8 10 -5 6 3 10 1 10 -4 0 -6 3 -11 8
-10 15 2 52 -14 52 -23 0 -5 4 -7 8 -4 5 3 14 -4 22 -14 8 -10 17 -17 22 -14
4 3 11 -2 14 -10 3 -9 10 -14 14 -11 5 3 11 -4 15 -15 4 -11 11 -18 16 -15 5
4 9 -1 9 -10 0 -9 5 -13 10 -10 6 3 10 -1 10 -9 0 -9 5 -16 10 -16 6 0 10 -6
10 -14 0 -8 7 -17 16 -20 8 -3 12 -10 9 -16 -3 -5 -2 -10 3 -10 10 0 49 -80
45 -92 -2 -5 2 -8 8 -8 6 0 9 -6 6 -14 -3 -7 -2 -17 3 -22 5 -5 11 -33 15 -63
3 -30 8 -58 11 -63 3 -4 -1 -8 -8 -8 -9 0 -10 -3 -2 -8 6 -4 10 -16 8 -27 -2
-11 -5 -37 -6 -57 -2 -21 -6 -38 -10 -38 -4 0 -5 -7 -2 -15 4 -8 1 -15 -6 -15
-6 0 -8 -4 -5 -10 3 -5 3 -16 -2 -22 -4 -7 -8 -17 -9 -23 -3 -25 -17 -55 -25
-55 -5 0 -9 -9 -9 -20 0 -11 -4 -20 -10 -20 -5 0 -10 -6 -10 -13 0 -16 -112
-135 -131 -139 -7 -2 -20 -11 -29 -20 -8 -9 -22 -18 -30 -20 -8 -2 -21 -9 -28
-16 -8 -7 -18 -10 -23 -6 -5 3 -12 -1 -15 -10 -3 -8 -12 -12 -20 -9 -8 3 -14
1 -14 -4 0 -5 -8 -9 -17 -10 -10 -1 -34 -5 -53 -9 -19 -4 -54 -7 -77 -8 -24 0
-43 -3 -43 -6 0 -4 -7 -7 -15 -7 -8 0 -12 4 -10 7 3 4 -14 8 -38 9 -61 3 -67
4 -67 10 0 4 -12 8 -27 9 -15 1 -29 6 -32 10 -3 4 -13 7 -21 7 -8 0 -21 5 -28
12 -7 7 -20 13 -28 13 -8 0 -14 5 -14 10 0 6 -7 10 -15 10 -8 0 -15 5 -15 10
0 6 -5 10 -11 10 -7 0 -20 10 -30 22 -11 11 -19 18 -19 14 0 -4 -16 10 -35 31
-19 21 -35 44 -35 51 0 7 -4 10 -10 7 -5 -3 -10 0 -10 8 0 7 -9 23 -19 34 -11
12 -17 24 -14 27 4 3 1 6 -5 6 -7 0 -11 3 -10 8 1 8 -9 39 -23 64 -5 10 -9 29
-9 43 0 14 -5 25 -10 25 -7 0 -7 6 -1 19 8 15 7 20 -5 25 -9 3 -12 11 -8 18 4
6 9 44 10 82 2 72 8 108 19 126 4 6 9 23 11 38 3 15 9 29 15 30 5 2 7 8 3 13
-3 5 0 9 6 9 7 0 10 7 6 15 -3 8 1 18 7 22 7 5 26 26 42 48 16 22 48 57 70 77
49 46 163 113 187 112 10 -1 18 3 18 8 0 5 5 6 10 3 6 -3 10 -2 10 4 0 6 7 8
15 5 8 -4 15 -1 15 6 0 10 3 10 15 0 12 -10 15 -10 15 0 0 7 8 10 20 7 11 -3
20 0 21 6 0 9 2 9 5 0 4 -9 13 -9 31 -2z"/>
<path d="M13712 11434 c-7 -8 -10 -18 -7 -23 3 -5 1 -13 -5 -16 -8 -5 -7 -11
1 -21 9 -11 8 -14 -2 -14 -11 0 -11 -2 0 -9 12 -8 12 -12 2 -25 -8 -9 -10 -16
-5 -16 5 0 9 -32 9 -70 0 -39 -4 -70 -8 -70 -4 0 -3 -9 3 -19 7 -14 7 -22 -1
-27 -8 -4 -7 -9 2 -14 10 -7 10 -11 0 -24 -8 -9 -10 -16 -5 -16 5 0 9 -32 9
-70 0 -39 -4 -70 -8 -70 -5 0 -5 -5 -1 -11 11 -18 11 -83 1 -96 -6 -9 -6 -13
1 -13 6 0 9 -8 7 -17 -2 -16 5 -18 54 -16 31 0 58 1 61 2 3 1 5 40 5 89 -1 48
3 93 9 101 8 11 8 13 -1 7 -10 -5 -12 1 -9 26 3 18 5 37 5 42 1 4 12 6 26 4
13 -3 26 0 29 6 2 6 5 7 5 1 1 -5 23 -10 51 -9 27 1 50 -3 50 -8 0 -5 4 -7 9
-3 5 3 16 -2 24 -10 9 -8 20 -15 26 -15 13 0 21 -46 24 -137 1 -40 7 -77 13
-83 15 -15 63 -20 70 -8 3 5 17 2 31 -7 14 -10 22 -12 18 -5 -4 7 -1 16 6 21
11 7 11 9 1 9 -7 0 -10 5 -7 10 3 6 1 10 -6 10 -8 0 -9 3 0 13 6 8 8 17 5 20
-4 4 -8 27 -9 52 -2 32 0 43 8 38 7 -3 5 2 -4 13 -9 10 -14 25 -12 32 11 30
-41 100 -69 94 -5 -1 -8 5 -8 13 0 8 7 15 15 15 8 0 29 14 47 30 17 17 27 30
22 30 -5 0 -3 4 4 9 20 12 19 151 -1 151 -4 0 -5 5 -2 10 3 6 1 10 -5 10 -6 0
-8 5 -5 10 3 6 2 10 -4 10 -6 0 -18 9 -28 19 -10 11 -27 21 -38 23 -11 1 -25
10 -32 18 -10 12 -12 12 -13 1 0 -11 -4 -11 -23 1 -15 10 -30 13 -44 7 -13 -5
-25 -4 -29 2 -4 7 -10 6 -19 -1 -10 -8 -15 -8 -20 0 -5 8 -10 8 -20 0 -9 -8
-15 -8 -20 0 -3 6 -12 7 -18 3 -19 -12 -37 -12 -37 -1 0 7 -5 7 -13 -1 -10 -8
-17 -7 -25 1 -7 7 -12 8 -12 2 0 -10 -39 -12 -56 -2 -5 3 -15 0 -22 -8z m312
-94 c6 -6 17 -10 26 -10 16 0 41 -47 41 -77 -1 -39 -5 -53 -13 -53 -5 0 -7 -3
-5 -7 3 -5 -1 -14 -9 -21 -8 -7 -14 -9 -14 -5 0 4 -4 2 -9 -6 -6 -9 -35 -14
-97 -16 -49 -1 -96 0 -104 2 -13 3 -15 22 -15 100 0 83 3 97 18 102 27 10 170
2 181 -9z"/>
<path d="M153 10314 c3 -5 -28 -9 -71 -9 l-77 0 -1 -487 c-1 -348 2 -488 10
-489 6 -1 29 -2 51 -3 22 0 45 -4 51 -8 6 -4 14 -5 18 -1 11 11 96 11 89 0 -4
-6 -1 -7 8 -1 21 13 62 13 78 0 11 -8 13 -8 7 2 -8 13 19 13 40 -1 6 -3 14 -4
18 0 11 11 96 11 89 0 -4 -6 -1 -7 8 -1 20 12 62 13 76 2 7 -6 14 -5 18 2 3 5
11 10 16 10 6 0 7 -5 3 -12 -5 -7 -3 -8 7 -2 20 12 101 12 118 0 11 -8 13 -8
8 0 -4 7 5 11 24 12 19 0 27 -3 23 -10 -5 -7 -2 -8 7 -2 20 12 81 12 98 0 11
-8 13 -8 8 0 -4 7 5 11 24 12 19 0 27 -3 23 -10 -5 -7 -2 -8 7 -2 19 12 81 13
96 2 7 -5 14 -5 18 2 3 5 11 10 16 10 6 0 7 -5 3 -12 -5 -7 -3 -8 7 -2 38 23
69 -7 46 -43 -5 -7 -4 -13 2 -13 10 0 8 -31 -4 -49 -3 -5 -1 -12 5 -16 7 -4 7
-12 0 -24 -5 -10 -6 -21 -3 -25 10 -10 11 -66 1 -66 -5 0 -6 -6 -2 -12 11 -18
12 -48 2 -48 -5 0 -6 -6 -2 -12 10 -17 11 -108 1 -108 -4 0 -3 -8 2 -18 7 -13
6 -23 -1 -30 -7 -7 -8 -12 -2 -12 5 0 9 -18 9 -40 0 -22 -3 -40 -8 -40 -4 0
-5 -6 -1 -12 11 -18 12 -48 2 -48 -5 0 -6 -6 -2 -12 10 -17 11 -108 1 -108 -4
0 -3 -8 2 -18 7 -13 6 -23 -1 -30 -7 -7 -8 -12 -2 -12 5 0 9 -18 9 -40 0 -22
-3 -40 -8 -40 -4 0 -5 -6 -1 -12 11 -18 12 -48 2 -48 -5 0 -6 -6 -1 -12 10
-18 11 -88 0 -88 -4 0 -5 -6 0 -12 11 -18 10 -42 -2 -50 -6 -5 -6 -8 1 -8 12
0 11 -41 -1 -59 -3 -6 -2 -11 3 -11 10 0 9 -36 -1 -46 -3 -4 -2 -15 3 -25 7
-12 7 -20 0 -24 -6 -4 -7 -13 -1 -23 11 -21 11 -33 0 -54 -6 -10 -5 -19 1 -23
7 -4 7 -12 0 -24 -5 -10 -6 -21 -3 -25 10 -10 10 -96 0 -96 -4 0 -5 -6 -1 -12
12 -19 12 -48 0 -48 -7 0 -7 -3 -1 -8 13 -9 16 -42 4 -42 -6 0 -5 -9 1 -20 8
-14 8 -20 0 -20 -6 0 -8 -5 -4 -12 12 -19 12 -48 0 -48 -7 0 -7 -3 -1 -8 6 -4
10 -14 10 -22 0 -8 -4 -18 -10 -22 -6 -5 -6 -8 2 -8 12 0 12 -17 0 -37 -5 -7
-4 -13 2 -13 9 0 9 -7 1 -45 -1 -5 -1 -12 0 -15 6 -15 4 -100 -3 -100 -4 0 -5
-6 0 -12 11 -18 10 -42 -2 -50 -6 -5 -6 -8 1 -8 12 0 11 -41 -1 -59 -3 -6 -2
-11 3 -11 10 0 9 -36 -1 -46 -3 -4 -2 -15 3 -25 7 -12 7 -20 0 -24 -7 -4 -6
-14 2 -28 6 -12 10 -24 9 -27 -2 -3 -7 -13 -12 -22 -6 -10 -5 -19 1 -23 7 -4
7 -12 0 -24 -5 -10 -6 -21 -3 -25 10 -10 10 -96 0 -96 -4 0 -5 -6 -1 -12 12
-19 12 -48 0 -48 -7 0 -7 -3 -1 -8 13 -9 16 -42 4 -42 -6 0 -5 -9 1 -20 8 -14
8 -20 0 -20 -6 0 -8 -5 -4 -12 12 -19 12 -48 0 -48 -7 0 -7 -3 -1 -8 6 -4 10
-14 10 -22 0 -8 -4 -18 -10 -22 -6 -5 -6 -8 2 -8 12 0 12 -17 0 -37 -5 -7 -4
-13 2 -13 9 0 9 -7 1 -45 -1 -5 -1 -12 0 -15 6 -15 4 -100 -3 -100 -4 0 -5 -6
0 -12 11 -18 10 -42 -2 -50 -6 -5 -6 -8 1 -8 12 0 11 -41 -1 -59 -3 -6 -2 -11
3 -11 10 0 9 -36 -1 -46 -3 -4 -2 -15 3 -25 7 -12 7 -20 0 -24 -6 -4 -7 -13
-1 -23 11 -21 11 -33 0 -54 -6 -10 -5 -19 1 -23 7 -4 7 -12 0 -24 -5 -10 -6
-21 -3 -25 10 -10 10 -96 0 -96 -4 0 -5 -6 -1 -12 12 -19 12 -48 0 -48 -7 0
-7 -3 -1 -8 13 -9 16 -42 3 -42 -5 0 -7 -4 -4 -8 11 -17 14 -62 5 -62 -6 0 -6
-7 0 -18 7 -13 6 -23 -1 -30 -7 -7 -8 -12 -2 -12 5 0 9 -18 9 -40 0 -22 -3
-40 -8 -40 -4 0 -5 -6 -1 -12 11 -18 12 -48 2 -48 -5 0 -6 -6 -2 -12 10 -17
11 -108 1 -108 -4 0 -3 -8 2 -18 7 -13 6 -23 -1 -30 -7 -7 -8 -12 -2 -12 5 0
9 -18 9 -40 0 -22 -3 -40 -8 -40 -4 0 -5 -6 -1 -12 11 -18 12 -48 2 -48 -5 0
-6 -6 -2 -12 10 -17 11 -108 1 -108 -4 0 -3 -8 2 -18 7 -13 6 -23 -1 -30 -7
-7 -8 -12 -2 -12 5 0 9 -18 9 -40 0 -22 -3 -40 -8 -40 -4 0 -5 -6 -1 -12 11
-18 12 -48 2 -48 -5 0 -6 -6 -2 -12 10 -17 11 -108 1 -108 -4 0 -3 -8 2 -18 7
-13 6 -23 -1 -30 -7 -7 -8 -12 -2 -12 5 0 9 -18 9 -40 0 -22 -3 -40 -8 -40 -4
0 -5 -6 -1 -12 11 -18 12 -48 2 -48 -5 0 -6 -6 -1 -12 10 -18 11 -88 0 -88 -4
0 -5 -6 -1 -12 12 -19 12 -48 0 -48 -7 0 -7 -3 -1 -8 12 -8 13 -32 2 -50 -5
-6 -4 -12 1 -12 10 0 9 -30 -2 -48 -4 -6 -3 -12 1 -12 13 0 11 -50 -1 -50 -6
-1 0 -10 13 -21 19 -15 26 -17 32 -7 5 7 9 9 9 3 0 -5 18 -10 39 -10 22 -1 37
3 35 7 -3 4 1 6 8 4 37 -12 78 -15 73 -6 -3 5 0 8 7 6 37 -12 78 -15 73 -6 -3
5 0 8 7 6 37 -12 78 -15 73 -6 -3 5 0 8 7 6 37 -12 78 -15 73 -6 -4 7 3 7 19
0 18 -7 26 -6 26 1 0 8 5 7 15 -1 12 -10 15 -10 15 1 0 9 3 10 8 4 8 -12 42
-16 42 -6 0 4 10 7 23 5 12 -1 22 -3 22 -4 0 -1 12 -3 28 -4 15 -1 27 2 27 7
0 4 6 5 12 1 19 -12 48 -12 48 -1 0 5 7 4 15 -3 12 -10 15 -10 15 1 0 9 3 10
8 4 8 -12 82 -14 82 -2 0 4 5 5 12 1 10 -7 29 -7 101 -5 l22 1 -1 3063 c-1
1684 -2 3065 -3 3068 0 4 -8 10 -17 13 -8 3 -13 2 -10 -3 6 -9 -56 -7 -73 3
-6 4 -11 2 -11 -4 0 -10 -53 -6 -73 7 -6 3 -7 2 -4 -4 7 -11 -53 -10 -72 1 -6
4 -11 3 -11 -1 0 -11 -133 -9 -150 2 -8 5 -11 4 -7 -2 7 -11 -53 -10 -72 1 -6
4 -11 3 -11 -1 0 -11 -133 -9 -150 2 -8 5 -11 4 -7 -2 7 -11 -53 -10 -72 1 -6
4 -11 2 -11 -4 0 -10 -53 -6 -73 7 -6 3 -7 2 -4 -4 7 -11 -53 -10 -72 1 -6 4
-11 3 -11 -1 0 -11 -133 -9 -150 2 -8 5 -11 4 -7 -2 7 -11 -53 -10 -72 1 -6 4
-11 3 -11 -1 0 -11 -133 -9 -150 2 -8 5 -11 4 -7 -2 7 -11 -53 -10 -72 1 -6 4
-11 2 -11 -4 0 -10 -53 -6 -73 7 -6 3 -7 2 -4 -4 7 -11 -53 -10 -72 1 -6 4
-11 3 -11 -1 0 -11 -133 -9 -150 2 -8 5 -11 4 -7 -2 7 -11 -53 -10 -72 1 -6 4
-11 3 -11 -1 0 -11 -133 -9 -150 2 -7 5 -11 4 -7 -1z"/>
<path d="M8103 10204 c3 -6 -32 -11 -86 -12 -99 -2 -116 -4 -132 -14 -6 -4
-16 -3 -23 1 -14 9 -74 2 -68 -8 2 -3 -13 -5 -35 -5 -21 1 -39 -1 -39 -5 0 -3
-16 -6 -35 -5 -19 1 -35 -1 -35 -5 0 -4 -14 -8 -31 -9 -17 -1 -39 -6 -48 -11
-9 -5 -22 -6 -28 -4 -7 3 -13 1 -13 -4 0 -5 -8 -10 -17 -11 -21 -2 -57 -10
-60 -12 -2 -2 -7 -4 -13 -5 -5 -1 -12 -4 -15 -5 -8 -4 -17 -7 -52 -15 -18 -4
-30 -12 -27 -17 4 -6 -2 -8 -15 -3 -13 4 -21 2 -21 -5 0 -7 -7 -10 -15 -6 -8
3 -15 1 -15 -5 0 -6 -4 -7 -10 -4 -5 3 -10 2 -10 -4 0 -6 -7 -8 -15 -5 -8 4
-15 2 -15 -4 0 -8 -68 -39 -97 -45 -5 -1 -16 -8 -26 -17 -10 -8 -21 -14 -25
-14 -4 1 -19 -7 -34 -17 -14 -10 -31 -19 -37 -19 -6 0 -11 -5 -11 -11 0 -6 -6
-9 -12 -7 -7 3 -24 -6 -38 -19 -14 -13 -35 -26 -47 -29 -13 -4 -20 -10 -17
-15 3 -5 0 -9 -6 -9 -16 0 -110 -67 -103 -74 4 -3 -4 -6 -16 -6 -12 0 -19 -4
-16 -10 3 -5 1 -10 -6 -10 -11 0 -28 -14 -90 -73 -16 -16 -29 -26 -29 -24 0 3
-25 -20 -55 -51 -30 -31 -55 -60 -55 -64 0 -4 -7 -8 -15 -8 -8 0 -14 -4 -12
-8 1 -4 -10 -20 -25 -34 -15 -14 -25 -28 -22 -31 3 -3 -4 -8 -15 -12 -12 -3
-21 -13 -21 -20 0 -8 -6 -18 -13 -22 -8 -4 -17 -16 -20 -26 -4 -10 -11 -15
-17 -12 -6 3 -7 -1 -4 -9 4 -9 -1 -18 -10 -22 -9 -3 -16 -10 -16 -15 0 -6 -5
-15 -10 -22 -41 -48 -49 -60 -45 -67 3 -4 -2 -10 -10 -14 -8 -3 -15 -12 -15
-20 0 -8 -4 -16 -9 -18 -13 -5 -71 -115 -64 -122 4 -3 2 -6 -4 -6 -6 0 -16
-13 -23 -30 -7 -16 -18 -30 -24 -30 -6 0 -4 -5 4 -10 11 -7 11 -10 2 -10 -7 0
-11 -4 -8 -9 3 -5 -1 -12 -10 -15 -9 -4 -14 -9 -11 -13 4 -3 1 -15 -5 -27 -7
-11 -11 -24 -10 -28 1 -5 -2 -8 -6 -8 -4 0 -8 -10 -9 -22 -1 -11 -7 -24 -13
-28 -7 -4 -11 -10 -10 -14 3 -14 -12 -66 -18 -62 -4 2 -8 -6 -9 -17 -2 -21 -9
-56 -13 -67 -1 -3 -2 -8 -1 -12 0 -5 -3 -8 -8 -8 -5 0 -8 -8 -6 -17 1 -10 -1
-22 -5 -28 -4 -5 -10 -26 -13 -45 -10 -65 -20 -105 -30 -117 -6 -9 -6 -13 2
-13 8 0 9 -5 2 -19 -6 -10 -11 -36 -12 -57 -1 -21 -6 -44 -11 -51 -5 -7 -5
-14 2 -18 6 -3 7 -12 3 -18 -14 -23 -22 -297 -8 -297 5 0 4 -5 -2 -11 -7 -7
-8 -21 -4 -33 4 -11 6 -36 5 -53 -1 -18 2 -33 8 -33 7 0 7 -5 -1 -13 -6 -8 -8
-16 -5 -19 6 -6 10 -32 18 -98 3 -25 8 -56 12 -70 3 -14 6 -35 7 -47 1 -13 5
-23 9 -23 4 0 8 -12 8 -27 0 -30 58 -225 70 -233 4 -3 6 -13 4 -22 -1 -10 2
-18 7 -18 6 0 8 -4 4 -9 -3 -5 -1 -12 5 -16 6 -4 8 -10 5 -15 -3 -5 -1 -11 5
-15 6 -4 8 -11 5 -16 -4 -5 -1 -9 4 -9 6 0 11 -9 11 -20 0 -11 4 -20 10 -20 5
0 15 -18 21 -40 7 -22 16 -40 21 -40 4 0 8 -9 8 -20 0 -11 5 -20 12 -20 6 0 9
-3 5 -6 -3 -4 1 -13 9 -21 8 -8 12 -19 9 -24 -4 -5 -2 -9 3 -9 9 0 37 -50 34
-62 -1 -5 2 -8 8 -8 5 0 17 -15 26 -32 9 -18 20 -35 23 -38 3 -3 17 -22 31
-42 14 -21 28 -38 33 -38 4 0 7 -5 7 -11 0 -6 6 -16 13 -23 6 -7 21 -25 32
-40 11 -15 41 -50 68 -78 26 -28 47 -55 47 -60 0 -5 5 -6 10 -3 6 3 10 -1 10
-10 0 -9 5 -13 10 -10 6 3 10 -1 10 -9 0 -9 3 -16 8 -16 4 0 34 -25 67 -54 92
-84 93 -85 99 -78 3 3 6 -2 6 -11 0 -9 7 -17 15 -17 8 0 15 -4 15 -10 0 -5 5
-10 11 -10 7 0 19 -8 28 -18 9 -9 28 -23 43 -31 15 -8 36 -22 47 -32 10 -10
21 -15 25 -12 3 3 8 -2 12 -11 3 -9 10 -13 15 -10 5 3 9 0 9 -5 0 -6 9 -11 20
-11 11 0 20 -7 20 -16 0 -8 4 -13 9 -9 5 3 16 -2 24 -10 9 -8 20 -15 26 -15 6
0 29 -11 50 -24 21 -14 42 -22 45 -19 3 4 6 2 6 -4 0 -5 18 -15 40 -22 22 -6
40 -16 40 -21 0 -6 3 -9 8 -8 15 3 102 -26 102 -35 0 -4 5 -5 10 -2 6 3 10 2
10 -3 0 -6 8 -8 19 -5 10 3 22 0 25 -6 4 -6 17 -11 30 -11 12 0 26 -4 32 -10
5 -5 26 -10 47 -12 20 -1 37 -5 37 -8 0 -7 10 -9 60 -12 19 -1 37 -5 40 -9 4
-6 93 -20 143 -22 9 -1 17 -4 17 -8 0 -3 12 -5 27 -3 15 1 33 -2 40 -8 9 -7
13 -7 13 2 0 8 4 9 13 3 13 -10 54 -16 125 -17 23 0 42 -3 42 -6 0 -3 16 -6
35 -7 25 -1 33 2 28 10 -4 8 -2 8 9 -1 9 -7 41 -13 72 -13 39 -1 54 -4 49 -13
-5 -8 -3 -8 8 0 19 14 61 16 53 2 -5 -7 -2 -8 7 -2 20 12 89 14 89 2 0 -6 7
-4 17 3 13 11 17 11 20 2 3 -9 10 -10 23 -3 13 7 21 7 25 0 4 -6 11 -8 16 -4
16 9 69 11 69 2 0 -4 5 -8 11 -8 5 0 8 4 5 8 -6 10 35 9 51 -1 6 -4 14 -3 18
3 4 6 11 7 17 4 17 -11 119 -11 105 -1 -7 5 -4 6 8 2 32 -11 59 -12 73 -2 6 5
12 6 12 1 0 -10 137 -11 146 -1 4 4 14 3 23 -1 20 -9 42 -9 59 1 6 5 12 5 12
0 0 -9 137 -9 146 0 4 4 14 3 23 -1 20 -9 42 -9 59 1 6 5 12 5 12 0 0 -9 137
-9 146 0 4 4 14 3 23 -1 20 -9 42 -9 59 1 6 5 12 5 12 0 0 -9 137 -9 146 0 4
4 14 3 23 -1 20 -9 42 -9 59 1 6 5 12 5 12 0 0 -9 137 -9 146 0 4 4 14 3 23
-1 20 -9 42 -9 59 1 6 5 12 5 12 0 0 -9 137 -9 146 0 4 4 14 3 23 -1 20 -9 42
-9 59 1 6 5 12 5 12 0 0 -9 137 -9 146 0 4 4 14 3 23 -1 20 -9 42 -9 59 1 6 5
12 5 12 0 0 -9 137 -9 146 0 4 4 14 3 23 -1 20 -9 42 -9 59 1 6 5 12 5 12 0 0
-9 137 -9 146 0 4 4 14 3 23 -1 20 -9 42 -9 59 1 6 5 12 5 12 0 0 -9 137 -9
146 0 4 4 14 3 23 -1 20 -9 42 -9 59 1 6 5 12 5 12 0 0 -9 137 -9 146 0 4 4
14 3 23 -1 20 -9 42 -9 59 1 6 5 12 5 12 0 0 -9 137 -9 146 0 4 4 14 3 23 -1
20 -9 42 -9 59 1 6 5 12 5 12 0 0 -9 137 -9 146 0 4 4 14 3 23 -1 20 -9 42 -9
59 1 6 5 12 5 12 0 0 -9 137 -9 146 0 4 4 14 3 23 -1 20 -9 42 -9 59 1 6 5 12
5 12 0 0 -9 137 -9 146 0 4 4 14 3 23 -1 20 -9 42 -9 59 1 6 5 12 5 12 0 0 -9
137 -9 146 0 4 4 14 3 23 -1 20 -9 42 -9 59 1 6 5 12 5 12 0 0 -9 137 -9 146
0 4 4 14 3 23 -1 20 -9 42 -9 59 1 6 5 12 5 12 0 0 -9 137 -9 146 0 4 4 14 3
23 -1 20 -9 42 -9 59 1 6 5 12 5 12 0 0 -9 137 -9 146 0 4 4 14 3 23 -1 20 -9
42 -9 59 1 6 5 12 5 12 0 0 -9 137 -9 146 0 4 4 14 3 23 -1 20 -9 42 -9 59 1
6 5 12 5 12 0 0 -9 137 -9 146 0 4 4 14 3 23 -1 20 -9 42 -9 59 1 6 5 12 5 12
0 0 -9 137 -9 146 0 4 4 14 3 23 -1 20 -9 42 -9 59 1 6 5 12 5 12 0 0 -9 137
-9 146 0 4 4 14 3 23 -1 20 -9 42 -9 59 1 6 5 12 5 12 0 0 -9 137 -9 146 0 4
4 14 3 23 -1 20 -9 42 -9 59 1 6 5 12 5 12 0 0 -9 137 -9 146 0 4 4 14 3 23
-1 20 -9 42 -9 59 1 6 5 12 5 12 0 0 -9 137 -9 146 0 4 4 14 3 23 -1 20 -9 42
-9 59 1 6 5 12 5 12 0 0 -9 137 -9 146 0 4 4 14 3 23 -1 20 -9 42 -9 59 1 6 5
12 5 12 0 0 -9 137 -9 146 0 4 4 14 3 23 -1 20 -9 42 -9 59 1 6 5 12 5 12 0 0
-9 111 -10 126 -1 7 5 10 929 3 976 -2 9 -6 9 -13 2 -14 -14 -39 -13 -30 2 5
7 3 8 -7 3 -21 -13 -139 -14 -139 -1 0 8 -2 8 -8 0 -9 -14 -224 -13 -234 1 -5
7 -8 7 -8 -1 0 -14 -230 -13 -230 1 0 6 -3 6 -8 -1 -9 -14 -224 -13 -234 1 -5
6 -8 6 -8 -1 0 -15 -102 -13 -112 1 -5 6 -8 6 -8 -2 0 -15 -70 -13 -70 2 0 6
-4 4 -8 -2 -9 -14 -63 -13 -74 2 -5 6 -8 6 -8 -2 0 -15 -70 -13 -70 2 0 6 -3
6 -8 -1 -9 -14 -112 -13 -112 1 0 6 -3 6 -8 -1 -9 -14 -224 -13 -234 1 -5 7
-8 7 -8 -1 0 -14 -230 -13 -230 1 0 6 -3 5 -8 -1 -9 -14 -104 -13 -114 1 -5 6
-8 6 -8 -2 0 -15 -70 -13 -70 2 0 6 -4 4 -8 -2 -9 -14 -63 -13 -74 2 -5 6 -8
6 -8 -2 0 -15 -70 -13 -70 2 0 6 -3 5 -8 -1 -9 -14 -104 -13 -114 1 -5 7 -8 6
-8 -1 0 -14 -230 -13 -230 1 0 6 -3 6 -8 -1 -9 -14 -224 -13 -234 1 -5 7 -8 7
-8 -1 0 -14 -230 -13 -230 1 0 6 -3 6 -8 -1 -9 -14 -304 -13 -314 1 -5 7 -8 7
-8 0 0 -14 -310 -14 -310 0 0 6 -3 6 -8 -1 -9 -14 -304 -13 -314 1 -5 7 -8 7
-8 -1 0 -14 -230 -13 -230 1 0 6 -3 6 -8 -1 -9 -14 -224 -13 -234 1 -5 7 -8 7
-8 -1 0 -14 -230 -13 -230 1 0 6 -3 5 -8 -1 -9 -14 -104 -13 -114 1 -5 6 -8 6
-8 -2 0 -15 -70 -13 -70 2 0 6 -4 4 -8 -2 -9 -14 -63 -13 -74 2 -5 6 -8 6 -8
-2 0 -15 -70 -13 -70 2 0 6 -3 6 -8 -1 -9 -14 -112 -13 -112 1 0 6 -3 6 -8 -1
-9 -14 -224 -13 -234 1 -5 7 -8 7 -8 -1 0 -14 -230 -13 -230 1 0 6 -3 5 -8 -1
-9 -14 -104 -13 -114 1 -5 6 -8 6 -8 -2 0 -15 -70 -13 -70 2 0 6 -4 4 -8 -2
-9 -14 -63 -13 -74 2 -5 6 -8 6 -8 -2 0 -15 -70 -13 -70 2 0 6 -3 6 -8 -1 -9
-14 -112 -13 -112 1 0 6 -3 6 -8 -1 -9 -14 -224 -13 -234 1 -5 7 -8 7 -8 -1 0
-14 -230 -13 -230 1 0 6 -3 6 -8 -1 -9 -14 -224 -13 -234 1 -5 7 -8 7 -8 -1 0
-7 -45 -10 -137 -8 -76 1 -140 3 -143 4 -3 1 -9 1 -15 0 -43 -9 -55 -9 -55 0
0 7 -5 8 -12 3 -17 -10 -68 -11 -74 -1 -3 4 -14 4 -24 -2 -10 -6 -21 -7 -23
-3 -3 5 -37 8 -76 7 -39 0 -71 4 -71 9 0 5 -7 4 -15 -3 -12 -10 -15 -10 -15 1
0 12 -2 12 -9 0 -6 -9 -11 -10 -15 -2 -4 6 -11 9 -16 6 -5 -3 -18 -1 -28 4
-13 7 -22 7 -30 -1 -7 -7 -12 -8 -12 -2 0 5 -10 10 -22 11 -13 0 -41 3 -63 6
-22 3 -60 9 -85 12 -25 3 -52 9 -60 12 -17 7 -28 10 -55 17 -11 2 -40 12 -65
21 -25 9 -54 18 -65 21 -11 2 -21 8 -23 13 -2 6 -10 7 -18 4 -8 -3 -14 1 -14
8 0 11 -3 11 -10 -1 -6 -10 -10 -11 -10 -3 0 7 -21 23 -47 35 -27 12 -50 25
-53 28 -13 18 -89 58 -96 52 -5 -4 -6 -3 -2 2 7 8 -14 36 -28 36 -4 0 -22 15
-39 33 -18 17 -41 39 -51 49 -17 15 -35 35 -109 123 -14 17 -35 46 -47 65 -12
19 -26 38 -31 41 -5 4 -6 12 -3 18 4 6 0 11 -9 11 -9 0 -14 4 -10 9 3 5 1 12
-5 16 -6 4 -8 11 -5 16 4 5 2 9 -2 9 -8 0 -43 71 -43 87 0 3 -8 15 -17 26 -10
11 -13 17 -6 14 7 -5 6 4 -3 23 -9 16 -13 34 -9 40 3 5 1 10 -4 10 -6 0 -11
13 -11 29 0 17 -4 33 -10 36 -5 3 -10 19 -10 34 0 15 -5 32 -12 39 -9 9 -9 12
0 12 9 0 10 6 4 18 -21 41 -20 325 1 366 7 14 6 16 -4 11 -8 -6 -10 -4 -5 4 7
10 23 68 51 181 2 8 4 17 5 20 1 3 2 8 1 13 0 4 3 7 9 7 5 0 10 7 10 16 0 19
51 128 62 132 4 2 6 8 2 13 -3 5 2 12 10 15 9 3 13 11 10 16 -4 6 -2 13 3 17
5 3 26 32 46 64 21 31 43 57 48 57 6 0 8 4 4 9 -3 6 0 13 8 18 7 4 23 21 35
37 12 16 22 25 22 20 0 -4 11 7 25 26 14 19 25 31 25 27 0 -4 13 5 28 20 16
15 43 39 61 53 17 14 39 32 48 40 9 8 18 14 20 13 8 -7 24 -2 19 6 -3 5 5 12
18 15 14 3 31 12 39 20 8 8 23 16 33 18 10 2 21 5 24 8 13 13 74 42 98 46 14
3 29 10 33 15 3 6 9 10 13 9 13 -3 66 12 66 18 0 4 12 8 28 8 52 3 82 8 82 15
0 4 11 6 25 4 14 -1 25 2 25 8 0 5 7 4 15 -3 8 -7 15 -8 15 -3 0 7 55 9 148 7
132 -3 197 -7 197 -14 0 -1 11 -3 25 -5 14 -2 36 -6 50 -9 14 -3 37 -8 53 -12
15 -3 25 -9 22 -14 -3 -4 3 -6 14 -3 10 3 22 0 25 -6 4 -5 13 -8 21 -4 8 3 15
0 15 -6 0 -6 6 -11 14 -11 7 0 26 -7 42 -14 15 -8 31 -13 36 -10 4 3 8 0 8 -5
0 -6 7 -11 15 -11 8 0 15 -4 15 -10 0 -5 6 -10 14 -10 8 0 21 -6 28 -13 7 -6
30 -21 51 -32 20 -11 37 -23 37 -27 0 -5 5 -8 10 -8 6 0 23 -11 38 -25 15 -14
34 -25 42 -25 13 0 13 -1 0 -10 -13 -8 -12 -10 3 -10 10 0 20 -7 23 -15 4 -8
9 -14 13 -12 6 3 61 -50 71 -69 3 -5 8 -8 13 -7 4 2 7 -3 7 -11 0 -8 8 -21 18
-28 9 -7 23 -25 31 -40 8 -16 18 -28 23 -28 5 0 13 -10 18 -22 6 -13 22 -41
35 -63 29 -44 53 -95 53 -109 0 -5 5 -12 10 -15 6 -3 12 -15 14 -26 1 -11 8
-26 15 -33 6 -7 10 -21 8 -31 -2 -11 3 -22 10 -25 8 -3 11 -13 8 -25 -3 -12
-1 -21 4 -21 5 0 10 -12 11 -26 1 -14 5 -31 9 -36 6 -12 15 -80 17 -135 1 -18
4 -33 8 -33 4 0 5 -9 3 -20 -2 -12 -2 -26 1 -33 6 -17 960 -15 977 2 8 8 8 11
-2 11 -10 0 -11 3 -2 14 7 8 8 17 3 20 -5 3 -7 24 -5 47 3 29 1 39 -7 34 -9
-6 -9 -2 -1 13 7 14 8 23 1 27 -5 3 -10 11 -10 16 0 6 5 7 12 3 7 -5 8 -3 2 7
-4 8 -9 23 -10 34 -6 64 -16 121 -24 130 -6 7 -5 16 2 23 7 7 8 12 2 12 -5 0
-11 11 -12 25 -3 35 -6 49 -13 55 -4 3 -8 21 -10 40 -2 19 -7 37 -11 40 -4 3
-9 19 -12 35 -2 17 -5 31 -6 33 -2 1 -4 7 -5 12 -1 6 -4 13 -5 18 -1 4 -2 10
-1 15 0 4 -3 7 -9 7 -5 0 -10 11 -10 25 0 14 -4 25 -10 25 -5 0 -7 7 -4 15 4
8 1 15 -7 15 -7 0 -9 3 -6 6 3 4 1 16 -5 28 -7 11 -13 23 -13 26 -1 3 -12 28
-25 55 -13 28 -23 53 -22 57 1 3 -5 12 -13 18 -8 7 -15 21 -15 30 0 10 -4 20
-9 22 -5 2 -11 10 -13 18 -2 8 -11 23 -20 34 -10 11 -18 26 -18 33 0 7 -4 13
-10 13 -5 0 -10 6 -10 13 0 6 -14 30 -30 51 -17 22 -30 46 -30 53 0 8 -4 12
-8 9 -5 -3 -15 7 -23 22 -8 15 -22 35 -33 45 -10 9 -16 17 -13 17 4 0 -1 8
-10 18 -43 45 -73 83 -73 93 0 5 -4 8 -9 4 -6 -3 -15 3 -20 14 -10 19 -69 81
-76 81 -9 0 -55 52 -55 62 0 6 -3 9 -6 5 -3 -3 -16 4 -29 16 -40 39 -103 89
-108 86 -3 -2 -15 8 -27 24 -12 15 -27 27 -34 27 -7 0 -21 9 -31 20 -10 11
-24 20 -32 20 -7 0 -13 4 -13 9 0 5 -16 16 -35 25 -19 9 -37 21 -40 26 -3 6
-15 10 -26 10 -10 0 -19 3 -19 8 0 4 -9 12 -19 17 -50 26 -157 79 -161 79 -3
1 -11 5 -17 9 -7 5 -23 10 -35 12 -12 3 -25 10 -29 16 -4 6 -12 8 -18 5 -6 -4
-11 -2 -11 3 0 6 -3 10 -7 10 -5 -1 -11 0 -15 1 -5 1 -11 3 -15 4 -5 1 -33 10
-63 21 -58 20 -75 25 -100 29 -9 1 -21 6 -28 10 -8 4 -28 10 -45 12 -18 2 -38
5 -44 6 -7 1 -13 5 -13 9 0 4 -9 5 -20 2 -13 -3 -20 0 -20 8 0 10 -3 10 -12 1
-7 -7 -17 -8 -29 -2 -9 6 -41 12 -71 14 -29 2 -53 5 -53 6 0 2 -90 9 -170 13
-27 1 -56 6 -64 11 -9 6 -12 5 -8 0z"/>
</g>
</svg>
